<?xml version="1.0" encoding="utf-8"?>
<!-- Generator: Adobe Illustrator 25.3.1, SVG Export Plug-In . SVG Version: 6.00 Build 0)  -->
<svg version="1.1" id="Layer_1" xmlns="http://www.w3.org/2000/svg" xmlns:xlink="http://www.w3.org/1999/xlink" x="0px" y="0px"
	 viewBox="0 0 512 512" style="enable-background:new 0 0 512 512;" xml:space="preserve">
<style type="text/css">
	.st0{fill:#990000;}
</style>
<path class="st0" d="M352.8,11.3c-40.1,4.8-76.6,28.5-97.1,62.2c-11.7,19.7-15.2,31.6-16.3,56.4c-0.7,18-0.4,23.1,2.8,35
	c7.1,26.8,17.4,43.8,39.3,63.9l14.2,12.9l0.4,112.8l0.4,112.5l-104.9-0.3l-105.3-0.3L76,461.8c-18.4-8.5-30.8-21.1-36.2-38.1
	c-3.2-10.2-3.5-15.6-3.5-205.9v-195H25.6H15v196.7c0,189.9,0,197.1,3.5,207.9c8.2,27.2,29.1,47.6,59.2,57.8
	c7.1,2.4,23.4,2.7,123,3.1l114.8,0.7v-6.8v-6.8h53.2h53.2v5.8v5.8h10.6h10.6V364.6c0-97.2,0.4-123,2.5-126.1c1.1-2,5.3-6.5,9.2-9.2
	C524,176.7,513.4,72.1,435,26.9c-14.2-8.2-26.9-12.2-45-15C372.6,9.2,369.1,9.2,352.8,11.3z M403.1,34.4
	c35.8,10.9,64.5,39.8,74.4,75.1c3.2,12.2,3.2,38.4,0,51c-5.7,20.4-13.8,33.6-33.3,52c-19.8,18.7-22,22.8-22,43.8v9.9h-53.2h-53.2
	v-12.9c0-16.6-3.5-24.1-16.3-34.7c-33.7-27.9-47.9-68.3-37.6-107c5.7-22.1,14.2-36.4,30.5-51.6c16-15,29.1-22.4,48.6-27.5
	C357.1,28.6,385.8,29.3,403.1,34.4z M422.3,292.6v14.3l-52.8-0.3l-52.8-0.3l-0.4-13.9l-0.4-13.6h53.5h53.2L422.3,292.6L422.3,292.6z
	 M422.3,331v14.3h-53.2h-53.2v-12.9c0-7.1,0.4-13.6,1.1-14.3c0.4-0.7,24.5-1,53.2-1h52.1V331z M422.3,371.1v14.3h-53.2h-53.2v-12.9
	c0-7.1,0.4-13.6,1.1-14.3c0.4-0.7,24.5-1,53.2-1h52.1V371.1z M422.3,410.5v15l-52.8-0.3l-52.8-0.3l-0.4-12.2
	c-0.4-6.8,0-13.3,0.4-14.6c0.7-1.7,11.3-2,53.5-2h52.5L422.3,410.5L422.3,410.5z M422.3,449.6v14.3h-53.2h-53.2v-12.9
	c0-7.1,0.4-13.6,1.1-14.3c0.4-0.7,24.5-1,53.2-1h52.1V449.6z"/>
</svg>
