<?xml version="1.0" encoding="utf-8"?>
<!-- Generator: Adobe Illustrator 25.3.1, SVG Export Plug-In . SVG Version: 6.00 Build 0)  -->
<svg version="1.1" id="Layer_1" xmlns="http://www.w3.org/2000/svg" xmlns:xlink="http://www.w3.org/1999/xlink" x="0px" y="0px"
	 viewBox="0 0 686 205" style="enable-background:new 0 0 686 205;" xml:space="preserve">
<style type="text/css">
	.st0{fill:#011F5B;}
	.st1{fill:#FFFFFF;}
	.st2{fill:#990000;}
	.st3{enable-background:new    ;}
</style>
<g>
	<g>
		<path class="st0" d="M186,173.1c0,4.9,1.2,8.5,6.4,8.5c4.9,0,7.3-3,7.3-8.8V163c0-0.6,0-1.2-0.3-1.8c-0.3-1.2-1.2-1.8-3-1.8v-0.9
			h8.2v0.9c-1.5,0.3-2.7,0.6-3,1.8c0,0.6-0.3,1.2-0.3,1.8v9.8c0,7.6-4.9,10.4-9.1,10.4c-7.3,0-9.8-3.7-9.8-10.1v-10.4
			c0-3.4,0-3-3-3.4v-0.9h9.8v0.9c-3,0.3-3,0.3-3,3.4v10.4H186z"/>
		<path class="st0" d="M224.7,182.9c-4.3-5.2-8.5-10.4-13.1-15.5v11.9c0,0.6,0,0.9,0.3,1.5c0,0.9,0.9,1.2,2.7,1.5v0.6h-6.7v-0.6
			c1.2,0,2.1-0.6,2.4-1.5c0-0.3,0.3-0.9,0.3-1.5v-12.5c-0.6-0.9-1.5-1.8-3-1.8v-0.6h4.9c4,4.9,8.2,9.8,12.2,14.6v-11
			c0-0.6,0-0.9-0.3-1.5c0-0.9-0.9-1.2-2.7-1.5v-0.6h6.7v0.6c-1.2,0-2.1,0.6-2.4,1.5c0,0.3-0.3,0.9-0.3,1.5v15.2h-0.9L224.7,182.9z"
			/>
		<path class="st0" d="M237.8,179.5c0,2.4,0,2.4,2.4,2.7v0.6h-7.3v-0.6c2.4-0.3,2.4-0.3,2.4-2.7v-12.2c0-2.4,0-2.4-2.4-2.7V164h7.3
			v0.6c-2.4,0.6-2.4,0.3-2.4,2.7V179.5z"/>
		<path class="st0" d="M251.8,164.9c-1.5,0-2.4,0.3-1.5,3c0.9,3,2.7,7.9,4,11.9c1.8-4,3.4-8.2,4.9-12.2c0.6-1.8,0-2.4-1.8-2.4v-0.6
			h5.8v0.6c-0.9,0-1.5,0.3-2.1,1.5c-2.1,5.5-4.6,11-6.7,16.5h-1.5c-1.5-4.6-3.4-9.8-5.2-14.3c-0.9-2.7-1.8-3.7-3-3.7v-0.6h7.3
			L251.8,164.9z"/>
		<path class="st0" d="M267.4,182.3c2.4-0.3,2.4-0.3,2.4-2.7v-12.2c0-2.4,0-2.4-2.4-2.7V164h11.9v4.6h-0.6c-0.3-2.1-0.9-3.4-2.7-3.4
			h-3.7v7.6h2.1c1.8,0,2.4-0.6,2.4-2.4h0.6v5.8h-0.6c0-1.5-0.6-2.4-2.4-2.4h-2.1v6.1c0,2.1,0.9,2.4,3.4,2.4c4,0,3.7-1.2,4.9-4h0.6
			l-0.6,4.6h-13.1L267.4,182.3L267.4,182.3z"/>
		<path class="st0" d="M286,164h7.9c2.7,0,5.5,1.5,5.5,4.6c0,2.7-1.8,4.6-3.7,5.5l2.7,4c1.2,1.8,2.7,4,3.7,4.3v0.3h-2.7
			c-1.5,0-2.4-3-5.8-8.2h-2.4v4.9c0,2.4,0,2.4,2.4,2.7v0.6h-7.3V182c2.4-0.3,2.4-0.3,2.4-2.7V167c0-2.4,0-2.4-2.4-2.7V164H286z
			 M290.8,173.7h2.1c2.4,0,3.4-1.8,3.4-4.9c0-3-1.5-4-3.7-4h-2.1v8.8L290.8,173.7L290.8,173.7z"/>
		<path class="st0" d="M315.2,168.3c-0.3-1.8-1.2-3.4-3.4-3.4c-1.5,0-3,0.9-3,2.7s1.8,3,4.6,4.9c2.7,2.1,3.7,3.4,3.7,5.8
			c0,3-3.4,4.9-6.4,4.9c-1.8,0-3-0.3-4.6-0.9l-0.3-0.3v-4h0.6c0.3,3,2.1,4.3,4.3,4.3c1.8,0,3.4-1.5,3.4-3.4c0-1.8-0.9-3-4.9-5.8
			c-1.5-0.9-3.4-2.1-3.4-4.9c0-2.4,2.7-4.3,5.8-4.3c1.2,0,2.7,0,3.7,0.6c0.3,0,0.3,0.3,0.3,0.3v3.7h-0.3v-0.2H315.2z"/>
		<path class="st0" d="M327.7,179.5c0,2.4,0,2.4,2.4,2.7v0.6h-7.3v-0.6c2.4-0.3,2.4-0.3,2.4-2.7v-12.2c0-2.4,0-2.4-2.4-2.7V164h7.3
			v0.6c-2.4,0.3-2.4,0.3-2.4,2.7V179.5z"/>
		<path class="st0" d="M343.9,179.5c0,2.4,0,2.4,2.4,2.7v0.6H339v-0.6c2.4-0.3,2.4-0.3,2.4-2.7v-14.6H339c-2.4,0-2.7,1.5-3.7,3.4
			h-0.6l0.6-4h14.9l0.6,4h-0.6c-0.9-1.8-1.5-3.4-3.7-3.4h-2.4v14.6H343.9z"/>
		<path class="st0" d="M358.5,182.3c2.4-0.3,2.4-0.3,2.4-2.7v-4.3l-4.3-8.2c-0.9-1.8-1.5-2.4-2.7-2.4V164h6.7v0.6
			c-2.1,0-1.8,0.9-1.2,2.4l3.4,6.7l3.7-6.7c0.9-1.5,0-2.4-1.5-2.4V164h5.5v0.6c-0.6,0-1.5,0.3-2.1,1.5l-4.6,8.2
			c-0.3,0.6-0.3,1.2-0.3,1.8v3c0,2.4,0,2.4,2.4,2.7v0.6h-7.3v-0.1H358.5z"/>
		<path class="st0" d="M384.1,176.5c0-4.6,4-11.3,9.8-11.3c4.6,0,5.5,3,5.5,6.4c0,4-3,11.9-9.8,11.9
			C385.3,183.2,384.1,179.8,384.1,176.5z M396.3,169.8c0-3.7-2.1-3.7-2.7-3.7c-3.7,0-6.1,6.7-6.1,11.3c0,1.8,0.3,5.2,2.7,5.2
			C394.2,182.3,396.3,175.9,396.3,169.8z"/>
		<path class="st0" d="M415.5,166.1l-0.9,0.6H410c-1.8,8.2-4.6,19.2-6.4,24.7h-1.5l4.9-24.7h-3.4l0.3-1.5h3.4
			c1.8-7.3,7.9-8.2,9.4-8.2c0.9,0,2.4,0,3,0.6l-0.3,2.4l-0.9,0.3c-0.6-0.9-1.5-2.1-3-2.1c-2.1,0-3.7,1.5-4.6,5.2l-0.3,1.5h5.2
			L415.5,166.1z"/>
		<path class="st0" d="M436.5,178.6c0,3.4,0,3,3,3.4v0.9h-9.4V182c3-0.3,3-0.3,3-3.4v-15.5c0-3.4,0-3-3-3.4v-0.9h9.1
			c5.8,0,8.5,2.4,8.5,6.4c0,4.9-4.6,7.6-9.8,7.3v-0.9c4.3,0,6.4-2.4,6.4-6.4s-1.8-5.8-5.8-5.8h-2.1L436.5,178.6z"/>
		<path class="st0" d="M452.7,182.3c2.4-0.3,2.4-0.3,2.4-2.7v-12.2c0-2.4,0-2.4-2.4-2.7V164h11.9v4.6H464c-0.3-2.1-0.9-3.4-2.7-3.4
			h-3.7v7.6h2.1c1.8,0,2.4-0.6,2.4-2.4h0.6v5.8h-0.6c0-1.5-0.6-2.4-2.4-2.4h-2.1v6.1c0,2.1,0.9,2.4,3.4,2.4c4,0,3.7-1.2,4.9-4h0.6
			l-0.9,4.9h-13.1v-0.9L452.7,182.3L452.7,182.3z"/>
		<path class="st0" d="M487.4,182.9c-4.3-5.2-8.8-10.4-13.1-15.5v11.9c0,0.6,0,0.9,0.3,1.5c0,0.9,0.9,1.2,2.7,1.5v0.6h-6.7v-0.6
			c1.2,0,2.1-0.6,2.4-1.5c0-0.3,0.3-0.9,0.3-1.5v-12.5c-0.6-0.9-1.5-1.8-3-1.8v-0.6h4.9c4,4.9,8.2,9.8,12.2,14.6v-11
			c0-0.6,0-0.9-0.3-1.5c0-0.9-0.9-1.2-2.7-1.5v-0.6h6.7v0.6c-1.2,0-2.1,0.6-2.4,1.5c0,0.3-0.3,0.9-0.3,1.5v15.2h-0.9v-0.3H487.4z"/>
		<path class="st0" d="M511.8,182.9c-4.3-5.2-8.8-10.4-13.1-15.5v11.9c0,0.6,0,0.9,0.3,1.5c0,0.9,0.9,1.2,2.7,1.5v0.6H495v-0.6
			c1.2,0,2.1-0.6,2.4-1.5c0-0.3,0.3-0.9,0.3-1.5v-12.5c-0.6-0.9-1.5-1.8-3-1.8v-0.6h4.9c4,4.9,8.2,9.8,12.2,14.6v-11
			c0-0.6,0-0.9,0-1.5c0-0.9-0.9-1.2-2.7-1.5v-0.6h6.7v0.6c-1.2,0-2.1,0.6-2.4,1.5c0,0.3-0.3,0.9-0.3,1.5v15.2h-1.2L511.8,182.9z"/>
		<path class="st0" d="M529.5,168.3c-0.3-1.8-1.2-3.4-3.4-3.4c-1.5,0-3,0.9-3,2.7s1.8,3,4.6,4.9c2.7,2.1,3.7,3.4,3.7,5.8
			c0,3-3.4,4.9-6.4,4.9c-1.8,0-3-0.3-4.6-0.9l-0.3-0.3v-4h0.6c0.3,3,2.1,4.3,4.3,4.3c1.8,0,3.4-1.5,3.4-3.4c0-1.8-0.9-3-4.9-5.8
			c-1.5-0.9-3.4-2.1-3.4-4.9c0-2.4,2.7-4.3,5.8-4.3c1.2,0,2.7,0,3.7,0.6c0.3,0,0.3,0.3,0.3,0.3v3.7h-0.3L529.5,168.3z"/>
		<path class="st0" d="M540.2,182.3c2.4-0.3,2.4-0.3,2.4-2.7v-4.3l-4.3-8.2c-0.9-1.8-1.5-2.4-2.7-2.4V164h6.7v0.6
			c-2.1,0-1.8,0.9-1.2,2.4l3.4,6.7l3.7-6.7c0.9-1.5,0-2.4-1.5-2.4V164h5.5v0.6c-0.6,0-1.5,0.3-2.1,1.5l-4.6,8.2
			c-0.3,0.6-0.3,1.2-0.3,1.8v3c0,2.4,0,2.4,2.4,2.7v0.6h-7.3L540.2,182.3z"/>
		<path class="st0" d="M556.6,182.3c2.4-0.3,2.4-0.3,2.4-2.7v-12.2c0-2.4,0-2.4-2.4-2.7V164h7.3v0.6c-2.4,0.3-2.4,0.3-2.4,2.7v12.5
			c0,1.8,0.9,2.1,3.4,2.1c4,0,3.7-1.2,4.9-4h0.6l-0.9,4.9h-13.1v-0.6L556.6,182.3z"/>
		<path class="st0" d="M578.6,164.9c-1.5,0-2.4,0.3-1.5,3c0.9,3,2.7,7.9,4,11.9c1.8-4,3.4-8.2,4.9-12.2c0.6-1.8,0-2.4-1.8-2.4v-0.6
			h5.8v0.6c-0.9,0-1.5,0.3-2.1,1.5c-2.1,5.5-4.6,11-6.7,16.5H580c-1.5-4.6-3.4-9.8-5.2-14.3c-0.9-2.7-1.8-3.7-3-3.7v-0.6h7.3v0.3
			H578.6z"/>
		<path class="st0" d="M594.7,176.8l-1.2,3.7c-0.3,0.9,0.3,1.8,1.2,1.8v0.6h-4.9v-0.6c0.6,0,1.5-0.3,1.8-1.2
			c1.2-2.4,4.3-11.3,6.4-17.1h1.5c1.8,5.5,4.6,13.7,5.5,16.2c0.6,1.5,0.9,2.4,2.1,2.4v0.6H601v-0.6c1.8,0,1.8-0.9,1.5-2.1l-1.2-3.4
			h-6.7L594.7,176.8z M601.1,175.6l-2.7-8.8l-3,8.8H601.1z"/>
		<path class="st0" d="M628,182.9c-4.3-5.2-8.8-10.4-13.1-15.5v11.9c0,0.6,0,0.9,0.3,1.5c0,0.9,0.9,1.2,2.7,1.5v0.6h-6.7v-0.6
			c1.2,0,2.1-0.6,2.4-1.5c0-0.3,0.3-0.9,0.3-1.5v-12.5c-0.6-0.9-1.5-1.8-3-1.8v-0.6h4.9c4,4.9,8.2,9.8,12.2,14.6v-11
			c0-0.6,0-0.9-0.3-1.5c0-0.9-0.9-1.2-2.7-1.5v-0.6h6.7v0.6c-1.2,0-2.1,0.6-2.4,1.5c0,0.3-0.3,0.9-0.3,1.5v15.2h-1V182.9z"/>
		<path class="st0" d="M640.5,179.5c0,2.4,0,2.4,2.4,2.7v0.6h-7.3v-0.6c2.4-0.3,2.4-0.3,2.4-2.7v-12.2c0-2.4,0-2.4-2.4-2.7V164h7.3
			v0.6c-2.4,0.3-2.4,0.3-2.4,2.7V179.5z"/>
		<path class="st0" d="M651.7,176.8l-1.2,3.7c-0.3,0.9,0.3,1.8,1.2,1.8v0.6h-4.9v-0.6c0.6,0,1.5-0.3,1.8-1.2
			c1.2-2.4,4.3-11.3,6.4-17.1h1.5c1.8,5.5,4.6,13.7,5.5,16.2c0.6,1.5,0.9,2.4,2.1,2.4v0.6H658v-0.6c1.8,0,1.8-0.9,1.5-2.1l-1.2-3.4
			h-6.7L651.7,176.8z M658.1,175.6l-2.7-8.8l-3,8.8H658.1z"/>
		<path class="st0" d="M179.6,146.3h485v2.1h-485L179.6,146.3z"/>
		<path class="st1" d="M164,16.2H15.3v74.1c0,32.3,17.7,55.8,32.9,69.5c16.5,15.2,34.8,24,40.9,25.5l0.6,0.3l0.6-0.3
			c6.1-1.2,24.4-10.1,40.8-25.6c14.9-14,32.9-37.2,32.9-69.5C164,89.3,164,16.2,164,16.2z"/>
	</g>
	<path class="st2" d="M19,20.1c0,0,0.3,43,0,43h141.4c0-20.1,0-43,0-43L19,20.1z M57.1,47.2l0.6,0.6c0.3,0.3,0.3,0.6,0.3,0.9
		c0,0.3,0,0.6-0.3,0.9c-0.3,0.3-0.3,0.3-0.6,0.6s-0.6,0.6-0.6,0.9V54H40.9H25.4v-2.7c0-0.3-0.3-0.6-0.6-0.9
		c-0.3-0.3-0.3-0.3-0.6-0.6c-0.3-0.3-0.3-0.6-0.3-0.9c0-0.3,0-0.6,0.3-0.9l0.6-0.6c0.3-0.3,0.6-0.6,0.6-0.9V38
		c0-0.3-0.3-0.6-0.6-0.9c-0.6-0.3-0.6-0.6-0.9-0.9c0,0-0.3-0.3-0.3-0.6s0-0.6,0.3-0.9l0.6-0.6c0.3-0.3,0.6-0.6,0.6-0.9v-2.7h0.3
		c1.8,0,3.4,0,4.6-0.6c0.6,0,0.9-0.3,1.5-0.6c0.9-0.6,1.8-1.2,3.7-1.2c1.2,0,2.4,0.6,3.7,0.9c0.6,0.3,1.5,0.6,2.1,0.6h0.3
		c0.6,0,1.2-0.3,2.1-0.6c0.9-0.3,2.1-0.9,3.7-0.9c1.5,0,2.7,0.6,3.7,1.2c0.3,0.3,0.9,0.6,1.2,0.6c1.2,0.6,2.7,0.6,4.6,0.6h0.3v2.7
		c0,0.3,0.3,0.6,0.6,0.9c0.3,0.3,0.3,0.3,0.6,0.6c-0.3,0.3,0,0.6,0,0.9c0,0.3,0,0.6-0.3,0.9c-0.3,0.3-0.3,0.3-0.6,0.6
		s-0.6,0.6-0.6,0.9v8.5C56.4,46.6,56.7,46.9,57.1,47.2z M116.8,51.8c-2.4,4-7,4.9-7.3,4.9c-0.9,0.3-1.8,0.3-2.7,0.3
		c-4.9,0-9.4-2.1-14-4.6c-0.6-0.3-1.2-0.6-1.8-0.9c-3-1.5-7-4-10.4-4c-0.9,0-1.8,0.3-2.7,0.6v0.3c0,0.3,0,0.9-0.3,1.2
		c-0.6,1.5-2.4,3-3.4,3.7c-2.1,1.5-4.6,3-7.6,3c-0.6,0-0.9,0-1.2-0.3c-0.6-0.3-0.9-0.6-1.2-0.9c-0.3-0.3-0.3-0.6-0.3-0.6
		c0-0.3,0-0.3-0.3-0.6v-0.3h-0.3c-1.2-0.3-1.8-1.2-1.8-2.1c0-0.6,0.6-1.2,0.9-1.8c0.9-0.9,1.5-1.8,0.3-2.7l-0.3-0.3
		c-0.3,0-0.3-0.3-0.3-0.3c-0.9-0.9-0.3-3.4,0-4.6c0.3-1.5,0.9-3,1.8-4.6c1.2-2.1,2.4-4.6,4.3-6.1c1.8-1.5,0.3,0.3,0.6,0.9l0.3,0.6
		l0.3-1.2c0.6-1.5,1.2-2.4,2.4-3s2.4,0.3,3,0.6l0.3,0.3l0.3-0.3c0.3-0.6,0.9-1.2,2.1-1.2s2.4,0.9,2.7,1.2l0.3,0.3l0.3-0.3
		c0.6-0.6,2.1-1.5,3.7-1.2c1.5,0.3,1.8,1.5,2.1,1.8v0.3h0.3c0.6-0.3,1.8-0.6,3,0c0.9,0.6,0.9,1.2,0.9,1.8V32h0.3
		c0.9-0.3,2.4-0.3,3.7,0.6c0.9,0.9,0.9,1.8,0.6,2.4v0.3h0.3c0.9,0,1.8,0,2.4,0.9c0.3,0.6,0.3,1.5,0,1.8v0.3h0.3
		c0.6,0,1.2,0.3,1.5,0.9c0.3,0.6,0,1.2-0.3,2.1v0.3h0.3c0.3,0.3,1.2,0.6,1.5,1.2c0.3,0.9,0.3,1.8,0,2.7V46c0.9,0.9,2.1,1.8,3,2.4
		c2.1,1.5,5.2,2.4,7.6,0.6c0.9-0.6,1.2-1.8,0.9-3c-0.3-0.9-0.9-1.8-1.8-1.8c-1.5-0.3-3,1.2-4,2.7c0,0,0,0-0.3,0
		c-0.9-2.4-0.9-4.3,0-5.8c0.6-1.2,2.1-2.1,4-2.4h0.3v-0.3c0-2.7,0.6-4.9,2.1-6.1c0.9-0.6,2.4-1.5,4.9-1.2c-1.8,4.6-1.5,6.1-0.3,9.8
		c0,0.3,0.3,0.6,0.3,0.9C118.6,46.3,118.3,49.4,116.8,51.8z M154.9,47.2c0.3,0.3,0.3,0.3,0.6,0.6s0.3,0.6,0.3,0.9
		c0,0.3,0,0.6-0.3,0.9c-0.3,0.3-0.3,0.3-0.6,0.6s-0.6,0.6-0.6,0.9V54h-15.5h-15.5v-2.7c0-0.3-0.3-0.6-0.6-0.9
		c-0.3-0.3-0.6-0.6-0.6-0.9c-0.3-0.3-0.3-0.6-0.3-0.9c0-0.3,0-0.6,0.3-0.9c0.3-0.3,0.3-0.3,0.6-0.6s0.6-0.6,0.6-0.9V38
		c0-0.3-0.3-0.6-0.6-0.9c-0.3-0.3-0.6-0.6-0.6-0.9c-0.3-0.3-0.3-0.6-0.3-0.9c0-0.3,0-0.6,0.3-0.9c0.3-0.3,0.3-0.3,0.6-0.6
		s0.6-0.6,0.6-0.9v-2.4h0.3c1.8,0,3.4,0,4.6-0.6c0.3-0.3,0.9-0.6,1.2-0.6c0.9-0.6,2.1-1.2,3.7-1.2c1.2,0,2.4,0.6,3.7,0.9
		c0.6,0.3,1.5,0.6,2.1,0.6h0.3c0.6,0,1.2-0.3,2.1-0.6s2.1-0.9,3.7-0.9s2.7,0.6,3.7,1.2c0.3,0.3,0.9,0.6,1.2,0.6
		c1.2,0.6,2.7,0.6,4.6,0.6h0.3v2.7c0,0.3,0.3,0.6,0.6,0.9c0,0.3,0.3,0.3,0.3,0.6c0.3,0.3,0.3,0.6,0.3,0.9c0,0.3,0,0.6-0.3,0.9
		c-0.3,0.3-0.3,0.3-0.6,0.6s-0.6,0.6-0.6,0.9v8.5C154.3,46.6,154.6,46.9,154.9,47.2z"/>
	<path class="st0" d="M67.7,45.4c0.6,0,0.9,0,1.5,0.6c0.3,0,0.3,0.3,0.3,0.3c0.3,0.3,0.3,0.9,0,1.2s-0.6,0.6-0.9,0.6
		c-0.6,0.3-1.5,1.2-2.1,0.6c-0.3-0.3,0.3-0.6,0-1.8C66.2,45.7,67.1,45.4,67.7,45.4z"/>
	<path class="st0" d="M106.7,57c-4.9,0-9.4-2.1-14-4.6c-0.6-0.3-1.2-0.6-1.8-0.9c-3.7-2.1-9.4-5.2-12.8-3c0,0.6,0,0.9-0.3,1.2
		c-0.6,1.5-2.4,3-3.4,3.7c-2.1,1.5-4.6,3-7.6,3c-0.6,0-0.9,0-1.2-0.3c-0.6-0.3-1.2-0.6-1.5-0.9c-0.3-0.3-0.3-0.6-0.6-0.9
		c0-0.3-0.3-0.6-0.3-0.6c-1.2-0.3-2.1-1.2-2.1-2.4c0-0.9,0.6-1.5,1.2-2.1c0.9-0.9,1.2-1.5,0.3-2.4l-0.3-0.3c-0.3,0-0.3-0.3-0.6-0.3
		c-1.2-1.2-0.6-3.4,0-4.9c0.3-1.5,0.9-3,1.8-4.6c1.2-2.1,2.4-4.6,4.3-6.4H68c0,0,0.3,0,0.3,0.3c0,0,0.9,1.2,1.5,2.7
		c3.4-1.8,7.9-2.1,8.5-2.1c3,0,7,0.3,10.7,3c2.1,1.8,4,4,5.8,5.8c0.6,0.6,0.9,1.2,1.5,1.5c2.7,3,5.5,5.5,7.9,7.3
		c2.1,1.5,5.2,2.1,7.3,0.6c0.6-0.6,1.2-1.8,0.9-2.7s-0.9-1.5-1.5-1.8c-1.5-0.3-2.7,1.2-3.7,2.7l-0.3,0.3c-0.3,0-0.3,0-0.3-0.3
		c-0.9-2.4-0.9-4.6,0-6.1c0.9-1.2,2.4-2.4,4.3-2.4c0-2.7,0.6-4.9,2.1-6.4c0.9-0.9,2.4-1.5,5.2-1.2c0,0,0.3,0,0.3,0.3V32
		c-1.8,4.3-1.2,6.1-0.3,9.8c0,0.3,0.3,0.6,0.3,0.9c0.9,3.7,0.6,6.7-0.9,9.1c-2.4,4-7.3,4.9-7.3,4.9C108.6,57,107.7,57,106.7,57z
		 M80.5,46.9c3.7,0,7.6,2.1,10.7,4l1.8,0.9c5.5,2.7,10.7,5.2,16.5,4.3c0,0,4.6-0.9,6.7-4.6c1.5-2.1,1.5-5.2,0.9-8.2
		c0-0.3-0.3-0.6-0.3-0.9c-0.9-3.4-1.5-5.5,0.3-9.8c-1.8,0-3,0.6-3.7,1.2c-1.2,1.2-1.8,3-1.8,6.1c0,0.3-0.3,0.3-0.3,0.6
		c-1.8,0.3-3.4,0.9-4,2.1s-0.6,2.7,0,4.6c0.9-1.2,2.4-2.7,4.3-2.4c1.2,0.3,2.1,1.2,2.4,2.4c0.3,1.5,0,3-1.2,3.7
		c-2.4,2.1-6.1,1.2-8.2-0.6c-2.7-1.8-5.2-4.3-8.2-7.6c-0.6-0.6-0.9-1.2-1.5-1.5c-1.8-2.1-3.7-4.3-5.8-5.8c-3.4-2.7-7.3-3-10.1-3
		c-1.8,0-5.8,0.6-8.2,2.1c0.9,1.5,1.5,3.4,1.5,4.9v0.9c1.8-1.2,4-0.3,5.2,0.9c0.3,0.3,0.6,0.6,0.9,1.2c0.6,0.6,0.9,1.5,1.5,2.1v0.3
		c0,0,0,0.3-0.3,0.3c0,0-1.2,0.9-2.7,2.1c-0.3,0.3-0.6,0.3-0.6,0.6l1.5,0.3C78.4,47.2,79.6,46.9,80.5,46.9z M68,31.4
		c-1.5,1.5-2.7,3.7-3.7,5.8c-0.9,1.5-1.2,3-1.8,4.3c-0.3,0.9-0.9,3,0,4l0.3,0.3l0.3,0.3c1.5,1.5,0.6,2.7-0.3,3.7
		c-0.3,0.6-0.9,0.9-0.9,1.5c0,1.2,1.2,1.5,1.8,1.5c0.3,0,0.3,0.3,0.3,0.3c0,0.3,0,0.6,0.3,0.9c0,0.3,0.3,0.3,0.3,0.6
		c0.3,0.3,0.6,0.6,1.2,0.6c0.3,0,0.6,0.3,0.9,0.3c2.7,0,5.2-1.5,7.3-2.7c1.2-0.9,2.4-2.1,3-3.4c0-0.3,0.3-0.6,0.3-0.9l-2.1-0.3
		c-0.3,0-0.3-0.3-0.3-0.3c0-0.3,0.3-0.6,0.9-1.2c0.3,0,0.3-0.3,0.6-0.3c0.9-0.9,1.8-1.5,2.4-1.8c-0.6-0.6-0.9-1.2-1.5-1.8
		c-0.3-0.6-0.6-0.9-0.9-1.2c-0.9-1.2-2.7-1.8-4.3-0.9c-0.6,0.3-1.2,0.9-1.5,1.2s-0.9,0.9-1.5,1.2c-0.3,0-0.3,0-0.6,0
		c0-0.3,0-0.3,0-0.6c0,0,0,0,0.3-0.3c0.6-0.6,2.1-2.1,2.1-3C71.1,36.6,68.6,32.6,68,31.4z"/>
	<path class="st0" d="M65,54c-0.3,0-0.9,0-1.2,0s-0.3-0.3-0.3-0.6s0.3-0.3,0.6-0.3c2.1,0.3,4.9,0,7.6-2.7c0.3-0.3,0.3-0.3,0.6,0
		c0.3,0.3,0.3,0.3,0,0.6C70.2,53,67.7,54,65,54z"/>
	<path class="st0" d="M100.9,47.2c-0.3,0-0.6-0.3-0.3-0.6c0.6-1.2,0.6-1.8,0.3-2.7c-0.6-0.9-1.5-1.2-1.5-1.2s-0.3,0-0.3-0.3v-0.3
		c0.3-0.3,0.6-1.5,0.3-2.1s-1.2-0.6-1.5-0.9c0,0-0.3,0-0.3-0.3v-0.3c0-0.3,0.3-1.2,0-1.8c-0.6-1-2.4-0.7-2.4-0.7h-0.3v-0.3
		c0,0,0.6-1.5-0.6-2.7s-3.7-0.6-3.7-0.6h-0.3V32c0,0,0.3-1.2-0.6-1.8c-1.5-0.9-3,0.3-3,0.3h-0.3L86,30.2c0,0-0.3-1.8-1.8-2.1
		c-1.5-0.3-3.4,1.5-3.4,1.5h-0.3c0,0-0.3,0-0.3-0.3c0,0-1.2-1.5-2.7-1.5s-1.8,1.5-1.8,1.5l-0.3,0.3H75c0,0-1.5-1.2-2.7-0.9
		c-1.8,0.6-2.1,2.7-2.4,3.7c0,0.3-0.3,0.3-0.6,0.3c-0.3,0-0.3-0.3-0.3-0.6c0.3-0.9,0.9-3.4,3-4.3c1.2-0.6,2.7,0.3,3.4,0.6
		c0.3-0.6,1.2-1.5,2.4-1.5c1.5,0,2.4,0.9,3,1.5c0.6-0.6,2.1-1.5,3.7-1.5c1.2,0.3,2.1,1.2,2.4,2.1c0.6-0.3,2.1-0.9,3.4,0
		c0.9,0.6,0.9,1.5,0.9,2.1c0.6,0.3,2.4,0.3,3.4,1.5c0.9,0.9,0.9,2.1,0.9,2.7c0.9,0,2.1,0,2.7,0.9c0.3,0.6,0.3,1.5,0,2.1
		c0.6,0,1.5,0.6,1.8,1.2c0.3,0.6,0,1.8-0.3,2.4c0.6,0.3,1.2,0.6,1.5,1.5c0.6,0.9,0.3,2.1-0.3,3.4C101.2,47.2,101.2,47.2,100.9,47.2z
		"/>
	<path class="st0" d="M98.8,53c-0.3,0-0.3-0.3-0.3-0.6c0.3-1.5-0.6-1.8-1.5-2.1c-0.3,0-0.3,0-0.6-0.3c-0.3-0.3-0.6-0.9-0.6-1.2
		c0-0.6,0-1.2-0.6-1.8s-2.1-0.3-2.1-0.3h-0.3c0,0-0.3-0.3,0-0.3c0,0,0.3-1.8-0.6-2.4c-0.9-0.6-2.4-0.6-3-0.3h-0.3c0,0-0.3-0.3,0-0.3
		c0-0.9-0.3-1.8-1.2-2.4c-0.6-0.3-1.5-0.6-2.1-0.3c-1.8,0.9-2.4,0.9-4.3-0.3c-0.6-0.3-1.2-0.6-1.8-0.3c-0.6,0.3-1.2,0.9-1.8,1.8
		c0,0.3-0.3,0.3-0.6,0.3c-0.6-0.6-0.6-0.9-0.6-1.2c0.6-1.2,1.5-1.8,2.4-2.1s1.5,0,2.4,0.6c1.5,1.2,1.8,0.9,3.4,0.3
		c0.9-0.6,2.1-0.3,3,0.3s1.5,1.5,1.5,2.7c0.9,0,2.1,0,3,0.6C93,44.2,93,45.1,93,46c0.6,0,1.8-0.3,2.7,0.6c0.6,0.6,0.6,1.5,0.6,2.4
		v0.6h0.3c0.9,0.3,2.4,0.6,2.1,3C99.1,53,99.1,53,98.8,53z"/>
	<path class="st0" d="M57.1,46.9c-0.3-0.3-0.6-0.3-0.6-0.6v-8.5c0-0.3,0.3-0.3,0.6-0.6s0.6-0.3,0.6-0.6C58,36.3,58,36,58,35.7
		s0-0.6-0.3-0.9c-0.3-0.3-0.3-0.6-0.6-0.6c-0.3-0.3-0.6-0.3-0.6-0.6v-3h-0.6c-1.5,0-3.4,0-4.6-0.6c-0.3-0.3-0.9-0.3-1.2-0.6
		c-0.9-0.6-2.1-1.2-4-1.2c-0.9-0.6-2.1-0.3-3.4,0.3c-0.6,0.3-1.5,0.6-1.8,0.6c-0.6,0-1.5-0.3-2.1-0.6c-1.2-0.6-2.4-0.9-3.7-0.9
		c-1.8,0-2.7,0.6-4,1.2c-0.3,0.3-0.9,0.6-1.2,0.6C28.7,30,27.2,30,25.6,30h-0.9v3c0,0.3-0.3,0.3-0.6,0.6c0,0.3-0.3,0.3-0.6,0.6
		c0,0.3-0.3,0.6-0.3,1.2c0,0.3,0,0.6,0.3,0.9c0.3,0.3,0.3,0.6,0.6,0.6c0.6,0.3,0.6,0.6,0.6,0.9v8.5c0,0.3-0.3,0.3-0.6,0.6
		c-0.3,0.3-0.6,0.3-0.6,0.6c-0.3,0.3-0.3,0.6-0.3,0.9s0,0.6,0.3,0.9c0.3,0.3,0.3,0.6,0.6,0.6c0.3,0.3,0.6,0.3,0.6,0.6v2.7h15.9h15.9
		v-2.7c0-0.3,0.3-0.3,0.6-0.6s0.6-0.3,0.6-0.6C58,49,58,48.7,58,48.4s0-0.6-0.3-0.9C57.7,47.2,57.4,47.2,57.1,46.9z M43,29.3
		c1.2-0.6,2.1-0.9,3.4-0.9c1.5,0,2.4,0.6,3.4,1.2c0.3,0.3,0.9,0.6,1.5,0.9c0.3,0.3,0.9,0.3,1.2,0.3v18.3c-0.6,0-1.5,0-2.4,0
		c-1.2,0-2.7,0-4-0.3c-0.3,0-0.9-0.3-1.2-0.3c-1.2-0.3-2.4-0.9-3.4-0.9V29.9C41.8,29.6,42.4,29.6,43,29.3z M30.2,30.2
		c0.6-0.3,0.9-0.6,1.5-0.9c0.9-0.3,1.8-0.9,3.4-0.9c1.2,0,2.4,0.6,3.4,0.9c0.6,0.3,1.2,0.6,1.8,0.6v17.4c-0.9,0-2.1,0.3-3.4,0.9
		c-0.3,0-0.9,0.3-1.2,0.3c-1.2,0.3-2.7,0.3-4,0.3c-0.9,0-1.8,0-2.4,0V30.5C29.6,30.5,29.9,30.5,30.2,30.2z M57.4,48.8v0.6
		c0,0.3-0.3,0.3-0.6,0.3c-0.3,0.3-0.9,0.6-0.9,1.5V53H40.6H25.7v-1.8c0-0.6-0.6-1.2-0.9-1.5c-0.3,0-0.3-0.3-0.6-0.3
		c0-0.3-0.3-0.3,0-0.6c0-0.3,0-0.3,0-0.6s0.3-0.3,0.6-0.3c0.3-0.3,0.9-0.6,0.9-1.5v-8.5c0-0.6-0.6-1.2-0.9-1.5
		c0-0.3-0.3-0.3-0.3-0.6s-0.3-0.3,0-0.6c0-0.3,0-0.3,0-0.6h0.3c0.3-0.3,0.9-0.6,0.9-1.5V31h2.1v19.8h11c0.3,0.9,0.9,1.2,1.8,1.2
		c0.9,0,1.5-0.6,1.8-1.2h11v-20h2.1v2.1c0,0.6,0.6,1.2,0.9,1.5c0.3,0,0.3,0.3,0.6,0.3c0,0.3,0.3,0.3,0,0.6V36c0,0.3-0.3,0.3-0.6,0.3
		c-0.3,0.3-0.9,0.6-0.9,1.5v8.5c0,0.6,0.6,1.2,0.9,1.5c0.3,0,0.3,0.3,0.6,0.3C57.1,48.2,57.4,48.5,57.4,48.8z"/>
	<path class="st0" d="M155.2,46.9c-0.3-0.3-0.6-0.3-0.6-0.6v-8.5c0-0.3,0.3-0.3,0.6-0.6s0.3-0.6,0.6-0.9c0.3-0.3,0.3-0.6,0.3-0.9
		s0-0.6-0.3-0.9c-0.3-0.6-0.3-0.6-0.6-0.9c-0.3-0.3-0.6-0.3-0.6-0.6v-3H154c-1.5,0-3.4,0-4.6-0.6c-0.3-0.3-0.9-0.3-1.2-0.6
		c-0.9-0.6-2.1-1.2-4-1.2c-1.2,0-2.7,0.6-3.7,0.9c-0.6,0.3-1.5,0.6-1.8,0.6c-0.6,0-1.2-0.3-1.8-0.6c-1.2-0.3-2.4-0.9-3.7-0.9
		c-1.8,0-2.7,0.6-4,1.2c-0.3,0.3-0.9,0.6-1.2,0.6c-1.2,0.6-2.7,0.6-4.6,0.6h-0.6v3c0,0.3-0.3,0.3-0.6,0.6s-0.6,0.3-0.6,0.6
		c-0.3,0.3-0.3,0.6-0.3,0.9c0,0.3,0,0.6,0.3,0.9c0.3,0.3,0.3,0.6,0.6,0.6c0.3,0.3,0.6,0.3,0.6,0.6v8.5c0,0.3-0.3,0.3-0.6,0.6
		c-0.3,0.3-0.6,0.3-0.6,0.6c-0.3,0.3-0.3,0.6-0.3,0.9c0,0.3,0,0.6,0.3,0.9c0.3,0.3,0.3,0.6,0.6,0.6c0.3,0.3,0.6,0.3,0.6,0.6v2.7
		h15.9h15.9V50c0-0.3,0.3-0.3,0.6-0.6s0.6-0.3,0.6-0.6c0.3-0.3,0.3-0.6,0.3-0.9c0-0.3,0-0.6-0.3-0.9
		C155.5,47.2,155.5,47.2,155.2,46.9z M141.2,29.3c0.9-0.6,2.1-0.9,3.4-0.9c1.5,0,2.4,0.6,3.4,1.2c0.3,0.3,0.9,0.6,1.5,0.9
		c0.3,0.3,0.9,0.3,1.2,0.3v18.3c-0.6,0-1.5,0-2.4,0c-1.2,0-2.7,0-4-0.3c-0.3,0-0.9-0.3-1.2-0.3c-1.2-0.3-2.4-0.9-3.4-0.9V29.9
		C139.7,29.6,140.3,29.6,141.2,29.3z M128.4,30.2c0.6-0.3,0.9-0.6,1.5-0.9c0.9-0.3,1.8-0.9,3-0.9s2.4,0.6,3.4,0.9
		c0.6,0.3,1.2,0.6,1.8,0.6v17.4c-0.9,0-2.1,0.3-3.4,0.9c-0.3,0-0.9,0.3-1.2,0.3c-1.2,0.3-2.7,0.3-4,0.3c-0.9,0-1.8,0-2.4,0V30.5
		C127.5,30.5,127.8,30.5,128.4,30.2z M155.2,48.8v0.6c0,0.3-0.3,0.3-0.6,0.3c-0.3,0.3-0.9,0.6-0.9,1.5V53h-14.9h-14.9v-1.8
		c0-0.6-0.6-1.2-0.9-1.5c-0.3,0-0.3-0.3-0.6-0.3c0-0.3-0.3-0.3,0-0.6c0-0.3,0-0.3,0-0.6s0.3-0.3,0.6-0.3c0.3-0.3,0.9-0.6,0.9-1.5
		v-8.5c0-0.6-0.6-1.2-0.9-1.5c-0.3,0-0.3-0.3-0.6-0.3c0-0.3-0.3-0.3,0-0.6c0-0.3,0-0.3,0-0.6c0.3-0.3,0.3-0.3,0.6-0.3
		c0.3-0.3,0.9-0.6,0.9-1.5V31h2.1v19.8h11c0.3,0.9,0.9,1.2,1.8,1.2s1.5-0.6,1.8-1.2h11v-20h2.1v2.1c0,0.6,0.6,1.2,0.9,1.5
		c0.3,0,0.3,0.3,0.6,0.3c0,0.3,0.3,0.3,0,0.6V36c0,0.3-0.3,0.3-0.6,0.3c-0.3,0.3-0.9,0.6-0.9,1.5v8.5c0,0.6,0.6,1.2,0.9,1.5
		c0.3,0,0.3,0.3,0.6,0.3L155.2,48.8z"/>
	<path class="st0" d="M161.3,18.9H18v71.3c0,31.4,17.4,54,32,67.7c15.9,14.6,33.8,23.5,39.6,24.7c5.5-1.2,23.5-10.1,39.6-24.7
		c14.6-13.4,32-36.3,32-67.7C161.3,89.3,161.3,18.9,161.3,18.9z M159.5,21v41.1H20.2c0-17.1,0-36.6,0-41.1H159.5z M47.6,131.7
		c-4.9-4.9-4.9-12.5,0-17.4s12.5-4.9,17.4,0s4.9,12.5,0,17.4C60.4,136.3,52.5,136.3,47.6,131.7z M128.1,156.4
		c-16.5,15.2-33.8,23.2-38.4,24.4c-4.6-1.2-21.6-8.8-38.4-24.4c-0.3-0.3-0.9-0.6-1.2-1.2l39.6-42.1l39.6,42.1
		C129,155.8,128.4,156.1,128.1,156.4z M77.5,92.4c0-6.7,5.5-12.2,12.2-12.2s12.2,5.5,12.2,12.2s-5.5,12.2-12.2,12.2
		C83,104.9,77.5,99.4,77.5,92.4z M131.7,131.7c-4.9,4.9-12.5,4.9-17.4,0c-4.9-4.9-4.9-12.5,0-17.4s12.5-4.9,17.4,0
		C136.6,118.9,136.6,126.8,131.7,131.7z M151.2,125.3L89.7,65.8l-61.6,59.4c-4.9-10.1-7.9-21.6-7.9-35.1c0-0.3,0-12.5,0-26.5h139.3
		v26.5C159.5,103.6,156.1,115.2,151.2,125.3z"/>
</g>
<path class="st2" d="M297.8,17.8c-10.6,1.3-20.2,7.5-25.6,16.4c-3.1,5.2-4,8.3-4.3,14.9c-0.2,4.7-0.1,6.1,0.7,9.2
	c1.9,7.1,4.6,11.6,10.4,16.8l3.7,3.4l0.1,29.7l0.1,29.6l-27.7-0.1l-27.7-0.1l-2.7-1.2c-4.9-2.2-8.1-5.6-9.5-10
	c-0.8-2.7-0.9-4.1-0.9-54.3V20.9h-2.8h-2.8v51.9c0,50.1,0,51.9,0.9,54.8c2.1,7.2,7.7,12.5,15.6,15.2c1.9,0.6,6.2,0.7,32.4,0.8
	l30.3,0.2V142v-1.8h14h14v1.5v1.5h2.8h2.8V111c0-25.6,0.1-32.4,0.7-33.2c0.3-0.5,1.4-1.7,2.4-2.4c18.2-13.9,15.4-41.5-5.2-53.4
	c-3.7-2.1-7.1-3.2-11.9-3.9C303,17.3,302.1,17.3,297.8,17.8z M311,23.9c9.4,2.9,17,10.5,19.6,19.8c0.8,3.2,0.8,10.1,0,13.4
	c-1.5,5.4-3.6,8.9-8.8,13.7c-5.2,4.9-5.8,6-5.8,11.6V85h-14h-14v-3.4c0-4.4-0.9-6.4-4.3-9.1c-8.9-7.3-12.6-18-9.9-28.2
	c1.5-5.8,3.7-9.6,8-13.6c4.2-3.9,7.7-5.9,12.8-7.3C298.9,22.4,306.5,22.6,311,23.9z M316.1,92v3.8l-13.9-0.1l-13.9-0.1l-0.1-3.7
	l-0.1-3.6h14.1h14L316.1,92L316.1,92z M316.1,102.1v3.8h-14h-14v-3.4c0-1.9,0.1-3.6,0.3-3.8c0.1-0.2,6.4-0.3,14-0.3h13.7V102.1z
	 M316.1,112.7v3.8h-14h-14V113c0-1.9,0.1-3.6,0.3-3.8c0.1-0.2,6.4-0.3,14-0.3h13.7V112.7z M316.1,123.1v3.9l-13.9-0.1l-13.9-0.1
	l-0.1-3.2c-0.1-1.8,0-3.5,0.1-3.9c0.2-0.4,3-0.5,14.1-0.5h13.8L316.1,123.1L316.1,123.1z M316.1,133.4v3.8h-14h-14v-3.4
	c0-1.9,0.1-3.6,0.3-3.8c0.1-0.2,6.4-0.3,14-0.3h13.7V133.4z"/>
<g class="st3">
	<path class="st0" d="M541.3,23.1h47.6c7.1,0,13.1,0.9,17.8,2.7s8.6,4.1,11.5,7c2.9,2.9,4.9,6.2,6.3,9.9c1.3,3.8,1.9,7.4,1.9,11.3
		c0,3.2-0.5,6.3-1.7,9.1c-1.1,2.9-2.7,5.5-4.7,7.7c-2.1,2.2-4.5,4.1-7.3,5.6c-2.9,1.4-6,2.5-9.4,3l0.4,0.4c0.8-0.1,2.6,0.2,5.5,1
		c2.9,0.8,5.9,2.2,9,4.4c3.1,2.1,6,5.2,8.5,9c2.5,3.8,3.8,8.8,3.8,14.8c0,5.5-1,10.2-3,14.3c-2,4.1-4.8,7.6-8.4,10.4
		c-3.6,2.9-8,5-13.1,6.4c-5.1,1.4-10.7,2.1-17,2.1h-47.6L541.3,23.1L541.3,23.1z M588.9,77.1c10.1,0,17.6-2.2,22.7-6.7
		c5-4.5,7.5-10.4,7.5-17.7c0-4.3-0.8-8-2.5-10.9c-1.7-3-3.9-5.4-6.6-7.2s-6-3.1-9.6-3.9s-7.4-1.2-11.4-1.2h-40.3v47.6H588.9z
		 M588.9,135.8c10.7,0,19-2.2,25.1-6.7c6.1-4.5,9-11.3,9-20.2c0-5.1-1.1-9.3-3.1-12.5c-2.1-3.3-4.8-5.8-8.1-7.7
		c-3.3-1.9-7-3.2-11-3.9c-4-0.7-8.1-1.1-11.9-1.1h-40.3v52.3L588.9,135.8L588.9,135.8z"/>
</g>
<path class="st0" d="M439.4,135.6l-25.6-0.1c0,0-18.1,0.7-24.1-0.1c-1.1-0.2-4-1.2-4-1.2c-4.5-2.1-6.6-4.5-7.9-8.8
	c-0.8-2.6-0.9-3.9-0.9-52.3V23.5h-3.5h-2.6v50.1c0,48.4,0,50.1,0.9,52.8c2,6.9,7.1,12.1,14.4,14.7c1.7,0.6,5.7,0.7,29.9,0.8
	l27.9,0.2v-1.7v-4.7"/>
<g class="st3">
	<path class="st0" d="M488.4,23.1h8l47,118.9h-7.8l-15-38.2h-57l-15.1,38.2h-7.8L488.4,23.1z M518.2,97.6l-25.5-67.3h-0.4
		l-26.5,67.3H518.2z"/>
</g>
</svg>
