<?xml version="1.0" encoding="utf-8"?>
<!-- Generator: Adobe Illustrator 25.3.1, SVG Export Plug-In . SVG Version: 6.00 Build 0)  -->
<svg version="1.1" id="Layer_1" xmlns="http://www.w3.org/2000/svg" xmlns:xlink="http://www.w3.org/1999/xlink" x="0px" y="0px"
	 viewBox="0 0 524 481" style="enable-background:new 0 0 524 481;" xml:space="preserve">
<style type="text/css">
	.st0{fill:#990000;stroke:#990000;stroke-miterlimit:10;}
	.st1{fill:#011F5B;stroke:#011F5B;stroke-miterlimit:10;}
	.st2{fill:#F7F9F9;}
	.st3{fill:#F9F9FA;}
	.st4{fill:#F6F8F9;}
	.st5{fill:#DDD9DA;}
	.st6{fill:#010201;stroke:#000000;stroke-width:4;stroke-miterlimit:10;}
	.st7{fill:#FFFFFF;stroke:#010201;stroke-width:4;stroke-miterlimit:10;}
	.st8{fill:#010201;}
	.st9{font-family:'LiberationSerif-Bold';}
	.st10{font-size:72.9704px;}
	.st11{fill:#FFFFFF;}
	.st12{fill:none;stroke:#000000;stroke-width:7;}
	.st13{fill:none;stroke:#FFFFFF;stroke-width:7;stroke-miterlimit:10;}
	.st14{font-size:68.3342px;}
</style>
<g>
	<path class="st0" d="M412.45,113.91c6.46,2.92,9.28,8.63,7.21,15.39c-0.89,2.91-2.51,5.6-3.86,8.37c-0.51,1.05-1.19,2.01-1.98,3.38
		c-0.79,1.71-1.39,3.05-2.13,4.6c-0.77,4.35,0.05,6.31,3.9,8.17c3.7,1.79,7.59,3.2,11.35,4.99c-0.91,1.48-1.77,2.75-2.82,3.91
		c-2.04-0.89-3.93-1.6-5.73-2.48c-2.56-1.24-5.27-2.32-7.54-3.98c-3.52-2.57-4.9-6.26-4.08-10.65c0.14-0.73,0.26-1.46,0.54-2.37
		c0.67-1.47,1.2-2.76,1.92-4.16c2.04-3.58,4.18-6.92,5.66-10.54c1.82-4.45,0.59-7.33-3.48-10.3
		C411.75,116.64,412.1,115.28,412.45,113.91z"/>
	<path class="st1" d="M287.28,359.67c-1.33,2.28-2.57,4.63-4.02,6.83c-1.1,1.67-2.32,3.31-3.75,4.7c-4.12,4.01-9.22,4.63-14.29,1.94
		c-0.55-0.29-1.13-0.55-2-1.04c-1.33-1.27-2.36-2.31-3.41-3.54c-2.55-3.62-4.91-7.19-7.66-10.42c-2.38-2.8-5.5-3.52-9.12-1.73
		c-0.91-1.3-1.63-2.53-2.16-3.93c5.42-2.94,10.14-1.84,14.23,2.01c1.99,1.87,3.54,4.22,5.29,6.36c1.13,1.39,2.26,2.79,3.48,4.38
		c1.16,1.15,2.23,2.1,3.41,3.24c3.28,2.2,5.84,2.17,8.39-0.23c1.44-1.36,2.65-3,3.76-4.65c1.47-2.18,2.74-4.49,4.3-6.68
		C285.07,357.87,286.17,358.77,287.28,359.67z"/>
	<path class="st0" d="M423.68,262.91c1.63,6.69-1,12.37-7.34,14.98c-2.79,1.15-5.88,1.6-8.85,2.3c-1.23,0.29-2.51,0.38-4.27,0.61
		c-1.9,0.43-3.29,0.81-4.89,1.23c-3.34,1.08-4.44,3.4-4.2,6.48c0.11,1.37,0.37,2.74,0.72,4.07c0.85,3.18,1.79,6.34,2.49,9.64
		c-1.7,0.23-3.2,0.32-4.73,0.15c-0.37-1.61-0.72-2.95-1.05-4.3c-0.69-2.79-1.58-5.55-2.01-8.39c-0.79-5.2,1.37-9.21,5.93-11.69
		c0.56-0.3,1.09-0.64,1.88-0.96c1.65-0.3,3.05-0.61,4.73-0.92c1.31-0.15,2.37-0.23,3.39-0.45c2.88-0.6,5.84-0.99,8.6-1.95
		c4.28-1.48,5.72-4.23,5.39-8.99C420.99,264.03,422.33,263.47,423.68,262.91z"/>
	<path class="st1" d="M193.12,345.45c-2.1,0.99-4.16,2.07-6.31,2.96c-1.95,0.8-3.93,1.64-5.98,2.04c-7,1.38-12.07-2.14-14.27-8.27
		c-0.39-1.92-0.68-3.4-0.95-5.19c-0.03-2.74,0-5.19-0.14-7.62c-0.11-2-0.23-4.03-0.66-5.97c-0.75-3.38-2.9-5.31-6.49-5.71
		c0.03-1.68,0.08-3.1,0.35-4.49c7.63,0.76,10.61,6.27,11.16,11.31c0.43,3.99,0.51,8.01,0.72,12.27c0.36,1.63,0.74,3.02,1.13,4.63
		c1.55,3.82,3.89,5.25,7.5,4.5c1.96-0.41,3.89-1.13,5.75-1.89c2.26-0.92,4.45-2.03,6.86-2.9
		C192.35,342.65,192.74,344.05,193.12,345.45z"/>
	<path class="st1" d="M392.64,302.62c1.5-0.09,2.99-0.18,4.92-0.45c4.12-1.72,5.31-3.39,5.05-7.18c-0.12-1.67-0.53-3.36-1.06-4.95
		c-0.9-2.72-2-5.37-3.01-8.05c1.39-0.38,2.78-0.76,4.41-1.13c1.39,3.09,2.74,6.1,3.62,9.25c0.62,2.2,1.02,4.63,0.78,6.87
		c-0.58,5.32-3.99,8.45-9.4,10.12c-1.9,0.28-3.34,0.49-5.07,0.63c-1.68-0.14-3.06-0.22-4.44-0.28c-2.65-0.1-5.32-0.39-7.95-0.23
		c-4.32,0.27-6.15,1.95-7.65,6.22c-1.66-0.09-3.03-0.22-4.37-0.57c1.72-6.77,5.45-9.93,12.11-10.31c1.9-0.11,3.81-0.02,5.71-0.01
		C388.41,302.57,390.52,302.6,392.64,302.62z"/>
	<path class="st1" d="M263.62,38.36c1.61-1.98,3.18-4,4.85-5.92c1.04-1.2,2.17-2.34,3.38-3.37c4.89-4.14,11.26-4.72,16.97,0.72
		c1.22,1.42,2.17,2.53,3.13,3.88c1.29,2.81,2.5,5.41,3.87,7.92c0.86,1.58,1.81,3.14,2.96,4.51c2.12,2.51,4.79,3.41,8.1,2.16
		c0.8,1.49,1.48,2.84,1.89,4.24c-6.44,1.87-10.73,0.58-14.46-4.61c-1.9-2.65-3.27-5.67-4.97-8.47c-0.57-0.94-1.4-1.72-2.08-2.8
		c-0.32-1.8-1.17-2.99-2.67-3.93c-3.06-2.7-5.3-3-8.33-0.93c-1.55,1.06-2.92,2.43-4.19,3.83c-1.84,2.03-3.51,4.22-5.45,6.23
		C265.5,40.6,264.56,39.48,263.62,38.36z"/>
	<path class="st1" d="M311.48,45.63c3.1-2.01,6.1-4.18,9.32-5.99c2.81-1.58,5.89-2.22,9.18-1.39c3.53,0.89,5.92,3.11,7.85,6.55
		c0.73,1.79,1.3,3.17,1.86,4.82c0.68,4.12,1.19,8.01,2.14,11.79c1.13,4.47,3.26,6,7.98,6.61c0.32,1.61,0.55,2.97,0.51,4.33
		c-6.82-0.07-10.64-2.72-12.72-8.93c-0.81-2.41-1.13-4.98-1.72-7.47c-0.39-1.64-0.84-3.25-1.25-5.11c-0.52-1.58-1.05-2.93-1.64-4.5
		c-1.95-3.33-3.82-4.27-7.08-3.47c-1.51,0.37-3.04,0.95-4.37,1.75c-2.79,1.7-5.44,3.61-8.32,5.29
		C312.52,48.41,312,47.02,311.48,45.63z"/>
	<path class="st1" d="M373.09,318.49c0.19,2.43,0.49,4.85,0.54,7.28c0.04,2,0,4.04-0.35,6.01c-1.1,6.09-4.78,9.47-10.89,10.26
		c-0.52,0.07-1.05,0.11-2,0.07c-1.92-0.4-3.41-0.72-5.14-1.11c-3.84-1.34-7.37-2.81-11.04-3.82c-4.68-1.3-6.73-0.39-9.75,3.46
		c-1.46-0.58-2.67-1.11-3.82-1.85c3.33-5.69,7.85-7.75,14.01-6.34c2.57,0.59,5.05,1.56,7.58,2.34c1.51,0.47,3.03,0.9,4.76,1.47
		c1.66,0.38,3.11,0.63,4.82,0.89c4.28-0.47,6.2-2.2,6.75-6.09c0.24-1.67,0.28-3.39,0.23-5.08c-0.08-2.65-0.3-5.3-0.19-7.97
		C370.29,318.16,371.69,318.33,373.09,318.49z"/>
	<path class="st1" d="M333.35,345.55c-0.63,2.69-1.12,5.42-1.93,8.05c-0.65,2.11-1.44,4.25-2.59,6.12
		c-2.72,4.41-7.25,6.19-12.35,5.19c-0.63-0.12-1.25-0.27-2.27-0.56c-1.72-0.82-3.04-1.49-4.48-2.35c-3.43-2.62-6.62-5.25-10.09-7.41
		c-3.69-2.3-6.08-1.87-9.68,0.81c-1.26-1.01-2.32-1.92-3.26-2.99c4.29-4.58,10.29-4.76,15.02-2.02c2.38,1.38,4.54,3.12,6.83,4.64
		c1.31,0.87,2.68,1.63,4.12,2.63c1.38,0.85,2.66,1.51,4.15,2.32c4.63,0.92,6.89-0.14,8.69-4.09c0.79-1.73,1.32-3.6,1.83-5.45
		c0.61-2.15,1.07-4.34,1.84-6.47C330.73,344.52,332.04,345.04,333.35,345.55z"/>
	<path class="st1" d="M153.41,318.2c-3.05,0.44-6.09,1.04-9.16,1.26c-2.09,0.15-4.31,0.09-6.33-0.43c-5.78-1.51-8.49-5.64-9-11.92
		c0.17-1.88,0.35-3.25,0.61-4.86c0.82-2.76,1.67-5.27,2.3-7.83c0.47-1.94,0.85-3.94,0.94-5.93c0.15-3.3-1.28-5.71-4.56-6.95
		c0.53-1.56,1.01-2.9,1.71-4.17c5.55,2.62,7.98,6.51,7.48,12.15c-0.21,2.4-0.84,4.77-1.34,7.14c-0.45,2.16-0.98,4.3-1.64,6.67
		c-0.22,1.64-0.29,3.07-0.4,4.74c0.41,4.02,1.97,5.93,5.59,6.45c2.07,0.3,4.24,0.13,6.35-0.05c2.43-0.21,4.84-0.66,7.41-0.83
		C153.49,315.27,153.45,316.73,153.41,318.2z"/>
	<path class="st0" d="M95.57,161.62c-2.86-5.67-0.99-13.18,5.76-16.52c3.59-1.78,7.54-2.82,11.75-4.35c1.72-0.74,3-1.31,4.52-1.93
		c3.36-2.17,4.22-4.15,3.23-7.61c-0.49-1.73-1.3-3.37-2.01-5.03c-1.01-2.34-2.06-4.67-2.95-7.18c1.55-0.58,2.96-0.98,4.44-1.18
		c1.28,2.92,2.51,5.61,3.68,8.34c3.41,7.96,2.34,12.1-4.65,17.44c-1.5,0.56-2.79,1.08-4.34,1.65c-3.84,1.27-7.53,2.25-10.99,3.76
		c-4.55,1.99-6.18,6.32-4.59,10.29C98.05,160.18,96.81,160.9,95.57,161.62z"/>
	<path class="st0" d="M435.06,212.83c3.42,5,3.18,12.46-3.39,17.26c-2.31,1.68-4.94,2.92-7.45,4.33c-1.01,0.57-2.08,1.05-3.49,1.78
		c-1.62,0.91-2.87,1.61-4.33,2.4c-2.83,2.93-3.23,5.09-1.59,8.48c0.69,1.43,1.6,2.77,2.47,4.11c1.44,2.24,2.93,4.46,4.24,6.87
		c-1.5,0.72-2.85,1.26-4.34,1.61c-1.36-2.05-2.63-3.88-3.77-5.79c-1.19-2-2.47-3.98-3.34-6.12c-1.86-4.59-0.93-8.72,2.64-12.21
		c0.45-0.44,0.91-0.88,1.58-1.39c1.36-0.83,2.51-1.6,3.92-2.37c3.8-1.9,7.48-3.59,10.87-5.75c3.27-2.09,4.77-6.41,2.45-10.23
		C432.77,214.7,433.91,213.76,435.06,212.83z"/>
	<path class="st1" d="M435.14,212.61c-1.23,1.15-2.38,2.08-3.84,3.24c-3.82,2.44-7.49,4.46-10.8,6.94
		c-3.45,2.59-3.88,4.91-2.55,9.01c-1.15,0.77-2.31,1.53-3.82,2.15c-3.21-6.58-0.53-11.75,3.55-14.92c2.18-1.69,4.6-3.05,6.86-4.64
		c1.18-0.83,2.25-1.82,3.58-2.75c1.3-0.98,2.39-1.96,3.67-3.05c2.44-3.32,2.51-5.6,0.21-8.5c-0.98-1.24-2.19-2.34-3.45-3.3
		c-2.37-1.8-4.86-3.45-7.21-5.37c1.1-1.16,2.09-2.12,3.09-3.07c2.82,1.91,5.78,3.65,8.43,5.77
		C439.08,199.06,440.3,206.08,435.14,212.61z"/>
	<path class="st0" d="M171.67,341.16c-0.38-1.38-0.77-2.77-0.89-4.43c3.95-1.57,7.57-3.06,11.33-4.1
		c6.21-1.71,10.26,0.05,13.72,5.55c0.22,0.35,0.52,0.65,0.8,1.22c0.4,1.58,0.78,2.92,1.2,4.52c0.91,3.74,1.53,7.3,2.74,10.66
		c1.8,5.01,4.54,6.39,9.99,5.76c0.7,1.46,1.25,2.76,1.8,4.06c-7.27,2.03-13.2-0.56-16.01-7.51c-1.42-3.5-2.01-7.33-3.1-11.23
		c-0.5-1.62-0.89-3.02-1.46-4.79c-2.14-3.79-4.17-4.83-7.75-3.96c-1.96,0.48-3.84,1.24-5.75,1.9
		C176.07,339.58,173.87,340.38,171.67,341.16z"/>
	<path class="st0" d="M316.62,359.82c-1.29-0.66-2.57-1.31-3.87-2.43c0.56-2.18,1.07-3.92,1.71-5.61c0.93-2.48,1.77-5.03,2.98-7.37
		c1.79-3.45,4.88-5.3,8.71-5.69c1.45-0.15,2.95,0.19,4.43,0.3c1.21,0.52,2.43,1.04,4.05,1.74c1.45,0.71,2.46,1.32,3.54,1.77
		c2.85,1.17,5.65,2.54,8.6,3.34c4.14,1.12,7.29-0.79,8.72-4.78c1.49,0.31,2.98,0.63,4.65,1.1c-2.58,6.86-8.34,10.05-15.19,8.08
		c-3.85-1.1-7.45-3.06-11.38-4.67c-1.53-0.56-2.84-1.07-4.61-1.76c-4.55-0.61-6.39,0.33-8.09,3.96c-0.72,1.53-1.18,3.19-1.74,4.79
		C318.29,354.99,317.46,357.41,316.62,359.82z"/>
	<path class="st0" d="M380.27,73.71c6.1,0.3,12.27,5.33,11.57,14c-0.3,3.77-1.34,7.48-2.14,11.7c-0.28,1.94-0.46,3.39-0.65,5.07
		c0.46,3.98,1.9,5.8,5.62,6.39c4.27,0.67,8.6,0.96,12.92,1.64c-0.53,1.61-1.07,2.98-1.92,4.33c-3.18-0.29-6.06-0.49-8.92-0.82
		c-7.25-0.86-12.34-4.05-12.46-12.41c0.16-1.68,0.22-3.16,0.45-4.81c0.93-4.25,2.03-8.3,2.32-12.4c0.32-4.51-2.11-6.99-6.7-8.11
		C380.3,76.59,380.29,75.15,380.27,73.71z"/>
	<path class="st0" d="M91.73,212.57c-4.51-5.48-4.57-11.86,0.4-16.89c2.87-2.91,6.46-5.1,10.09-7.82c1.59-1.15,3.27-1.66,3.83-3.49
		c2.55-2.73,2.92-4.61,1.24-7.45c-1.07-1.8-2.51-3.39-3.87-5.01c-1.63-1.94-3.36-3.81-4.93-5.91c1.39-0.95,2.67-1.7,4.05-2.26
		c1.51,1.79,2.96,3.35,4.32,4.99c1.43,1.72,2.94,3.39,4.13,5.27c2.72,4.31,2.6,8.64-0.42,12.82c-0.43,0.59-0.75,1.26-1.33,1.98
		c-1.27,0.94-2.32,1.79-3.57,2.67c-3.52,2.48-7.1,4.66-10.1,7.47c-3.4,3.18-3.32,6.37-0.68,10.41
		C93.75,210.54,92.74,211.55,91.73,212.57z"/>
	<path class="st0" d="M286.57,352.58c1.07,0.91,2.13,1.82,3.51,2.98c3.37,2.9,6.27,5.76,9.53,8.12c3.57,2.57,7.92,1.79,10.24-1.48
		c1.32,0.67,2.64,1.34,4.09,2.15c-5,6.19-11.39,7.26-17.89,2.77c-3.03-2.09-5.61-4.82-8.58-7.36c-1.29-0.99-2.4-1.9-3.86-3.04
		c-3.76-1.9-5.84-1.69-8.36,0.9c-1.4,1.44-2.53,3.13-3.74,4.75c-1.47,1.95-2.89,3.93-4.33,5.9c-1.07-0.95-2.14-1.9-3.14-3.25
		c2.25-3.4,4.34-6.47,6.64-9.37c2.41-3.04,5.54-5.12,9.55-4.84C282.37,350.96,284.45,351.96,286.57,352.58z"/>
	<path class="st1" d="M416.61,238.51c1.25-0.7,2.51-1.4,3.97-2.14c3.19,3.17,6.03,6.49,7.89,10.51c1.98,4.29,1.9,8.51-1.01,12.37
		c-0.94,1.25-2.31,2.18-3.63,3.45c-1.49,0.77-2.83,1.33-4.61,1.99c-2.18,0.52-3.94,0.9-5.66,1.39c-2.44,0.68-4.94,1.24-7.25,2.23
		c-3.7,1.58-4.74,3.64-4.48,7.79c-1.41,0.31-2.81,0.62-4.51,0.65c-1.01-5.37,1.7-10.38,7.1-12.7c1.84-0.79,3.78-1.34,5.69-1.95
		c2.4-0.77,4.82-1.49,7.23-2.24c1.35-0.54,2.69-1.07,4.38-1.84c3.38-2.54,4.15-4.78,2.81-8.14c-0.62-1.55-1.47-3.05-2.45-4.4
		C420.34,243.09,418.44,240.83,416.61,238.51z"/>
	<path class="st0" d="M339.7,49.36c-0.57-1.38-1.15-2.76-1.77-4.33c6.15-1.64,13.59,1.46,15.32,10.35
		c0.69,3.51,0.87,7.12,1.29,11.24c0.24,1.95,0.45,3.36,0.72,4.97c1.89,4.07,4.3,5.33,8.78,4.52c3.74-0.68,7.44-1.56,11.29-2.14
		c0.13,1.72,0.13,3.23-0.13,4.78c-3.37,0.64-6.48,1.3-9.61,1.85c-7.89,1.37-13.07-1.55-15.02-8.21c-0.23-1.36-0.46-2.72-0.74-4.59
		c-0.44-4.28-0.56-8.1-1.3-11.81C347.61,51.34,344.24,48.53,339.7,49.36z"/>
	<path class="st0" d="M424.55,188.14c-1.09,1.17-2.09,2.13-3.35,3.4c-2.01,3.5-1.95,5.54,0.21,8.14c1.01,1.21,2.21,2.27,3.41,3.3
		c2.23,1.94,4.52,3.82,6.79,5.72c-1.09,0.98-2.18,1.96-3.67,2.8c-1.45-1.03-2.52-1.89-3.54-2.82c-2.26-2.06-4.73-3.96-6.69-6.28
		c-3.18-3.75-3.54-8.01-1.2-12.41c0.3-0.56,0.58-1.12,1.06-1.81c1.02-1.22,1.85-2.31,2.87-3.45c3.14-2.91,6.37-5.53,8.95-8.69
		c2.92-3.58,2.49-6.67-0.52-10.49c0.83-1.46,1.62-2.71,2.42-3.97c5.49,5.23,6.2,11.57,1.71,17.65c-1.69,2.28-3.86,4.21-5.84,6.27
		C426.35,186.35,425.48,187.13,424.55,188.14z"/>
	<path class="st1" d="M212.54,364.52c-0.74-1.41-1.29-2.72-2.01-4.42c-1.49-4.18-2.61-8.05-4.18-11.73
		c-1.78-4.15-4.18-5.28-8.55-4.71c-0.38-1.34-0.77-2.68-0.91-4.33c5.29-1.37,9.35,0.36,12.12,4.52c1.62,2.44,2.59,5.32,3.77,8.04
		c0.84,1.94,1.54,3.94,2.35,6.15c0.77,1.43,1.5,2.63,2.27,4.02c2.55,3.26,4.74,3.95,8.08,2.38c1.71-0.81,3.31-1.94,4.78-3.15
		c2.14-1.75,4.11-3.7,6.34-5.45c1.07,1.39,1.96,2.67,2.85,3.94c-0.92,0.7-1.88,1.35-2.76,2.1c-2.03,1.72-3.9,3.68-6.07,5.21
		c-6.16,4.33-11.99,3.62-17.15-1.86C213.25,365,212.98,364.83,212.54,364.52z"/>
	<path class="st1" d="M137.25,99.06c-0.73-3.86-1.69-7.7-2.12-11.6c-0.48-4.37,0.81-8.37,4.54-10.98c1.76-1.23,4.07-1.69,6.62-2.57
		c1.96,0.06,3.42,0.19,5.16,0.37c1.64,0.29,3,0.55,4.37,0.77c2.84,0.46,5.66,1.14,8.52,1.29c4.18,0.21,5.85-1.1,7.71-5.07
		c1.59,0.32,2.94,0.63,4.25,1.19c-2.44,6.24-6.27,8.84-12.57,8.61c-1.8-0.07-3.61-0.37-5.4-0.65c-2.52-0.39-5.04-0.84-7.84-1.36
		c-1.66-0.07-3.03-0.05-4.65-0.07c-4.1,0.88-5.79,2.7-6.02,6.45c-0.08,1.37,0.02,2.78,0.26,4.13c0.55,3.03,1.24,6.04,1.67,9.21
		C140.13,98.97,138.69,99.01,137.25,99.06z"/>
	<path class="st1" d="M123.42,280.68c-2.19-0.37-4.39-0.7-6.57-1.13c-1.77-0.35-3.54-0.75-5.25-1.28
		c-6.66-2.08-10.39-8.32-8.34-15.39c0.72-1.79,1.33-3.13,2.09-4.62c1.36-2.01,2.62-3.84,3.76-5.74c1.14-1.9,2.35-3.78,3.19-5.81
		c1.43-3.49,0.74-5.75-2.1-8.64c0.93-1.3,1.77-2.41,2.83-3.42c5.24,4.06,5.41,10.18,3.23,14.74c-1.18,2.47-2.74,4.76-4.1,7.15
		c-0.78,1.37-1.49,2.77-2.4,4.28c-0.76,1.49-1.35,2.86-2.04,4.53c-0.44,4.65,0.8,7,4.98,8.19c3.94,1.12,8.06,1.58,12.14,2.55
		C124.38,277.76,123.9,279.22,123.42,280.68z"/>
	<path class="st0" d="M134.07,307.82c0.07-1.43,0.14-2.86,0.65-4.48c3.21-0.37,5.97-0.61,8.74-0.69c9.05-0.26,12.32,2.05,15,10.52
		c-0.05,1.42-0.1,2.83-0.18,4.79c-0.14,1.49-0.31,2.43-0.34,3.38c-0.1,2.74-0.35,5.5-0.16,8.23c0.34,5,3.02,7.5,7.82,7.73
		c0.29,1.48,0.57,2.97,0.85,4.67c-7.25,0.49-13.02-4.68-13.34-11.98c-0.16-3.71,0.16-7.44,0.29-11.47c0.06-1.78,0.1-3.24,0.03-5.12
		c-0.43-3.63-2.32-5.38-5.41-5.81c-1.67-0.23-3.38-0.27-5.06-0.22C139.99,307.44,137.03,307.66,134.07,307.82z"/>
	<path class="st1" d="M172.54,66.2c0.39-3.59,0.61-7.2,1.21-10.75c0.64-3.79,2.45-7,5.84-9.12c2.68-1.68,5.63-1.7,9.12-1.28
		c1.77,0.54,3.06,0.95,4.51,1.48c3.98,2.12,7.71,4.35,11.66,6.03c3.87,1.64,6.11,0.77,9.04-2.47c1.41,0.8,2.62,1.56,3.7,2.53
		c-3.1,4.74-8.58,6.37-13.91,4.44c-2.87-1.04-5.56-2.57-8.35-3.85c-1.33-0.61-2.68-1.16-4.2-1.92c-1.55-0.56-2.94-0.94-4.52-1.48
		c-3.94-0.48-5.89,0.54-7.28,3.77c-0.58,1.35-0.99,2.81-1.17,4.26c-0.39,3.15-0.59,6.33-1.11,9.52
		C175.41,66.99,173.98,66.6,172.54,66.2z"/>
	<path class="st0" d="M112.8,234.53c-0.85,1.11-1.69,2.22-2.79,3.65c-2.63,3.6-5.32,6.7-7.32,10.19c-2.23,3.89-1.16,7.21,2.49,10.02
		c-0.61,1.34-1.21,2.68-1.94,4.2c-6.54-4.38-8.16-10.49-4.31-17.34c1.86-3.31,4.44-6.22,6.97-9.63c0.99-1.54,1.7-2.77,2.63-4.13
		c1.57-3.64,1.18-5.71-1.6-8.05c-1.37-1.16-2.96-2.05-4.48-3.02c-2.15-1.37-4.32-2.69-6.46-4.25c0.95-1.3,1.87-2.38,3.01-3.37
		c0.83,0.5,1.44,0.92,2.07,1.32c2.78,1.76,5.72,3.32,8.31,5.32c4.73,3.66,5.81,7.95,3.82,13.58
		C113.03,233.5,112.93,234.02,112.8,234.53z"/>
	<path class="st1" d="M120.24,117.61c-1.4,0.4-2.81,0.8-4.58,1.38c-3.25,1.04-4.56,3.15-4.26,5.96c0.22,2.06,0.87,4.16,1.73,6.06
		c1.22,2.7,2.81,5.24,4.24,7.85c-1.29,0.57-2.57,1.14-4.08,1.75c-1.47-2.07-2.84-4.11-3.92-6.3c-0.98-1.99-1.89-4.07-2.42-6.21
		c-1.48-6.04,0.83-10.51,7.33-13.98c1.87-0.53,3.31-0.93,5.04-1.32c2.59-0.22,4.91-0.38,7.21-0.68c1.98-0.26,3.98-0.52,5.89-1.07
		c3.89-1.13,5.22-2.98,5.74-7.12c1.65-0.09,3.02-0.15,4.39,0.08c0.01,4.07-1.38,7.29-4.51,9.36c-1.91,1.26-4.18,2.19-6.42,2.66
		C127.89,116.81,124.05,117.11,120.24,117.61z"/>
	<path class="st0" d="M142.55,103.72c-1.36,0.06-2.73,0.12-4.69,0.18c-4.63,0.19-8.71,0.04-12.67,0.67
		c-4.46,0.71-6.28,3.55-6.14,8.24c-1.44,0.4-2.89,0.79-4.55,1.23c-0.76-8.18,3.73-13.72,11.94-14.6c3.38-0.36,6.81-0.2,10.51-0.33
		c1.74-0.1,3.18-0.14,5.03-0.32c4.04-1.34,5.37-2.93,5.46-6.49c0.04-1.69-0.18-3.38-0.36-5.07c-0.3-2.74-0.66-5.47-1-8.21
		c1.38-0.02,2.75-0.04,4.44,0.27c0.37,0.86,0.45,1.38,0.5,1.91c0.35,3.69,0.95,7.37,0.99,11.06c0.06,5.54-2.78,9.17-7.98,10.91
		C143.53,103.34,143.04,103.53,142.55,103.72z"/>
	<path class="st1" d="M375.46,78.71c0-1.51,0-3.02-0.13-4.99c-1.53-4.43-4.03-6.2-8.12-5.43c-4.05,0.76-8,2.04-11.99,3.09
		c-0.22-1.41-0.44-2.81-0.6-4.48c3.41-1.23,6.73-2.36,10.14-3.12c3.04-0.69,6.12-0.56,9.02,0.86c3.62,1.77,5.58,4.76,6.45,8.85
		c0.07,1.68,0.09,3.12,0.11,5.13c-0.23,2.46-0.51,4.34-0.67,6.22c-0.21,2.51-0.53,5.04-0.43,7.55c0.15,3.39,1.92,5.72,5.34,6.6
		c-0.05,1.47-0.11,2.95-0.49,4.54c-6.22-1.5-9.17-5.52-9.57-11.47c-0.12-1.79,0.1-3.61,0.24-5.41
		C374.94,84,375.21,81.35,375.46,78.71z"/>
	<path class="st0" d="M186.84,49.96c1.38,0.38,2.77,0.76,4.26,1.59c-0.61,4.29-1.17,8.18-2.1,11.97c-0.9,3.66-3.03,6.62-6.74,7.86
		c-1.86,0.62-3.94,0.58-5.91,0.84c-1.35-0.31-2.71-0.62-4.51-1.05c-1.96-0.62-3.45-1.26-4.99-1.61c-2.68-0.62-5.39-1.38-8.12-1.52
		c-4.19-0.22-6.63,1.99-7.54,6.2c-1.47-0.13-2.93-0.26-4.65-0.39c0.72-4.85,3.38-8.34,8.13-9.96c2.99-1.02,6.1-0.78,9.12-0.07
		c2.78,0.66,5.5,1.56,8.51,2.37c1.7,0.41,3.13,0.8,5.08,1.23c4.24-0.18,5.91-1.36,7.05-4.75c0.4-1.19,0.63-2.45,0.86-3.69
		C185.82,55.98,186.32,52.97,186.84,49.96z"/>
	<path class="st0" d="M193.05,46.41c-1.29-0.41-2.58-0.81-4.08-1.37c3.12-6.4,9.14-8.94,15.67-6.18c3.88,1.64,7.33,4.29,11.28,6.72
		c1.66,0.97,3.01,1.7,4.6,2.54c3.27,1.25,5.65,0.17,7.47-2.24c1.07-1.42,1.88-3.05,2.73-4.62c1.3-2.41,2.54-4.85,4.04-7.26
		c1.37,0.95,2.52,1.87,3.56,2.97c-1.44,2.69-2.74,5.23-4.1,7.73c-4.35,7.95-7.78,9.54-16.47,7.7c-1.21-0.75-2.42-1.51-3.96-2.5
		c-3.35-2.2-6.25-4.36-9.4-6.07C200.68,41.82,196.65,41.29,193.05,46.41z"/>
	<path class="st1" d="M405.98,116.87c0.54-1.37,1.08-2.75,1.65-4.62c-0.28-4.9-2.3-7.22-6.85-7.66c-3.88-0.37-7.81-0.24-11.72-0.33
		c0.18-1.46,0.36-2.91,0.67-4.6c3.3-0.21,6.49-0.36,9.65-0.14c8.09,0.57,13.48,5.08,13.06,14.14c-0.34,1.61-0.69,2.98-1.22,4.72
		c-1.84,4.14-3.74,7.82-5.08,11.7c-1.4,4.05-0.44,7.13,2.88,9.11c-0.53,1.29-1.05,2.57-1.94,3.92c-5.6-3.61-7.29-7.93-5.54-14.04
		c0.76-2.64,2.04-5.13,3.02-7.72C405.11,119.9,405.51,118.37,405.98,116.87z"/>
	<path class="st1" d="M420.25,184.78c-0.83,1.09-1.66,2.18-2.86,3.22c-4.07-3.88-4.45-9.7-1.45-14.44c1.3-2.05,2.91-3.89,4.41-5.81
		c1.3-1.66,2.64-3.28,3.96-4.92c0.86-1.27,1.72-2.54,2.77-4.24c1.03-4.71,0.13-6.81-3.57-8.9c-1.2-0.68-2.49-1.21-3.79-1.67
		c-2.61-0.91-5.26-1.73-7.89-2.58c0.6-1.34,1.2-2.68,1.96-4.16c2.19,0.48,4.24,1.06,6.25,1.74c1.41,0.47,2.79,1.03,4.15,1.62
		c5.69,2.45,10.39,8.18,7.13,16.69c-0.83,1.51-1.62,2.76-2.66,4.31c-2.85,3.24-5.58,6.09-8.02,9.16
		C418.16,177.94,417.66,181.35,420.25,184.78z"/>
	<path class="st1" d="M102.43,163.55c-1.28,0.75-2.55,1.49-4.13,2.51c-3.06,3-3.55,5.24-1.74,8.4c0.93,1.63,2.16,3.12,3.46,4.48
		c1.82,1.9,3.84,3.61,5.77,5.41c-0.31,1.84-1.98,2.34-3.38,3.37c-1.39-1.1-2.63-2.26-3.81-3.47c-1.49-1.52-3.05-2.98-4.38-4.63
		c-5.04-6.19-4.03-13.3,1.24-17.82c1.35-0.9,2.59-1.63,4.2-2.57c3.98-1.76,7.69-3.1,11.17-4.89c4.21-2.17,5.12-4.38,4.44-9.15
		c1.29-0.52,2.59-1.04,4.18-1.35c2.22,6.59-1.15,11.67-5.93,14.36c-2.11,1.19-4.38,2.09-6.57,3.14
		C105.44,162.08,103.94,162.82,102.43,163.55z"/>
	<path class="st0" d="M123.32,280.91c0.58-1.69,1.06-3.15,1.61-5.1c0.48-4.12-1.43-6.26-4.58-7.52c-1.07-0.43-2.2-0.72-3.33-1
		c-3.07-0.77-6.15-1.5-9.22-2.25c0.59-1.37,1.18-2.74,2.22-4.16c4.25,0.98,8.11,1.83,11.83,3.07c5.43,1.8,8.4,6.45,7.78,11.78
		c-0.06,0.52,0.04,1.06,0.07,1.58c-0.48,1.34-0.96,2.67-1.61,4.45c-1.42,4.04-2.97,7.57-3.86,11.26c-1.16,4.8,0.56,7.52,5.22,9.46
		c-0.18,1.38-0.36,2.75-0.6,4.38c-7.24-1.89-10.91-7.61-9.3-14.87C120.39,288.29,121.98,284.75,123.32,280.91z"/>
	<path class="st1" d="M238.43,36.8c-1.15-0.93-2.3-1.85-3.81-2.98c-3.01-1.61-5.54-1.36-7.65,0.72c-1.18,1.16-2.23,2.59-2.91,4.1
		c-1.4,3.06-2.53,6.26-3.77,9.39c-1.35-0.74-2.69-1.47-4.15-2.4c0.74-2.36,1.5-4.58,2.45-6.71c0.77-1.74,1.63-3.47,2.68-5.06
		c2.9-4.38,8.24-7.8,16.31-4.02c1.59,1.01,2.8,1.79,4.08,2.75c2.95,3.12,5.69,6.22,8.74,8.96c2.86,2.57,6.17,3.17,9.78,0.79
		c1.18,1.05,2.15,2.07,2.93,3.27c-3.57,3.25-9.48,3.97-14.33,0.49c-2.31-1.65-4.29-3.75-6.41-5.67
		C241.03,39.24,239.74,38.01,238.43,36.8z"/>
	<path class="st0" d="M217.34,361.86c-0.72-1.2-1.45-2.39-2.03-3.97c1.68-1.53,3.18-2.73,4.75-3.83c2.18-1.52,4.28-3.25,6.65-4.37
		c4.3-2.03,8.48-1.56,12.2,1.64c0.55,0.48,1.18,0.87,1.77,1.31c0.72,1.23,1.44,2.46,2.36,4c2.25,3.61,4.15,7.03,6.42,10.17
		c2.38,3.29,6.92,4.4,10.38,1.93c1.03,1.04,2.05,2.08,3.16,3.32c-6.18,4.08-12.38,3.4-17.07-2.17c-2.44-2.9-4.19-6.38-6.37-9.86
		c-1.01-1.54-1.89-2.81-3.04-4.41c-3.23-2.9-5.29-3.22-8.6-1.37c-1.47,0.82-2.81,1.89-4.18,2.88
		C221.59,358.71,219.47,360.29,217.34,361.86z"/>
	<path class="st0" d="M311.29,45.5c0.71,1.52,1.24,2.91,2.01,4.65c2.45,3.27,5.29,3.64,8.47,2.32c1.56-0.65,3.02-1.53,4.52-2.32
		c2.25-1.18,4.49-2.37,6.74-3.56c0.53,1.35,1.07,2.7,1.37,4.37c-3.35,1.94-6.42,3.67-9.59,5.16c-1.61,0.76-3.39,1.35-5.15,1.57
		c-4.61,0.57-7.96-1.69-10.61-5.23c-0.68-1.34-1.35-2.68-2.14-4.44c-1.63-3.92-2.86-7.57-4.71-10.88c-2.4-4.31-5.48-5.21-10.24-3.69
		c-0.95-1.11-1.89-2.22-2.94-3.51c5.39-3.26,13.25-2.61,17.58,5.27C308.36,38.43,309.61,41.96,311.29,45.5z"/>
	<path class="st0" d="M241.58,32.4c-1.2-0.78-2.41-1.56-3.77-2.49c6-5.56,12.34-5.66,18.33-0.07c2.62,2.45,4.76,5.42,7.3,8.34
		c1.12,1.29,2.07,2.41,3.35,3.78c3.59,2.31,5.77,2.31,8.7,0.03c1.4-1.09,2.62-2.43,3.88-3.7c1.78-1.79,3.53-3.61,5.29-5.42
		c1.43,0.76,2.29,1.95,2.45,3.93c-2.89,3.12-5.5,5.93-8.33,8.52c-2.74,2.51-6.12,3.64-9.77,2.75c-2.01-0.49-3.83-1.74-5.73-2.64
		c-0.97-1.02-1.94-2.04-3.09-3.33c-2.53-3.11-4.72-6.12-7.29-8.76C249.68,30,245.68,29.07,241.58,32.4z"/>
	<path class="st1" d="M98.8,212.7c-0.93,1.08-1.86,2.16-3.02,3.56c-2.02,3.28-2.05,5.48,0.08,7.83c1.19,1.32,2.68,2.45,4.23,3.34
		c2.67,1.54,5.49,2.81,8.25,4.2c-0.71,1.23-1.43,2.45-2.32,3.82c-3.84-1.81-7.67-3.49-11.11-5.77c-3.91-2.59-5.85-6.52-5.1-11.31
		c0.29-1.85,1.22-3.6,1.9-5.6c1.05-1.22,2.06-2.24,3.38-3.53c3.36-2.92,6.54-5.45,9.44-8.25c2.82-2.73,3.54-5.99,1.35-9.54
		c1.05-0.85,2.11-1.7,3.56-2.43c3.37,4.98,2.93,9.7-0.56,14c-1.86,2.28-4.23,4.15-6.38,6.2C101.25,210.38,100.02,211.54,98.8,212.7z
		"/>
	<path class="st0" d="M373.37,318.49c-1.68-0.16-3.08-0.33-4.99-0.48c-3.9,0.24-5.69,2.23-6.3,5.4c-0.28,1.46-0.42,2.96-0.46,4.45
		c-0.08,3.09-0.05,6.19-0.06,9.29c-1.45-0.25-2.91-0.49-4.53-1.2c-0.13-2.47-0.16-4.5-0.04-6.51c0.15-2.53,0.14-5.13,0.7-7.58
		c1.11-4.8,4.23-7.69,9.19-8.45c0.52-0.08,1.04-0.21,1.56-0.32c1.37,0.13,2.74,0.25,4.65,0.4c4.43,0.47,8.31,1.19,12.2,1.27
		c4.67,0.1,7.07-2.28,7.88-6.98c1.44-0.21,2.88-0.41,4.56-0.59c-0.58,7.98-5.31,12.48-13.39,12.48
		C380.77,319.68,377.2,318.91,373.37,318.49z"/>
	<path class="st2" d="M259.82,368.55c-3.43,2.67-7.97,1.55-10.35-1.73c-2.28-3.14-4.17-6.56-6.23-10.11
		c3.43-2.1,6.55-1.38,8.93,1.42C254.91,361.37,257.27,364.93,259.82,368.55z"/>
	<path class="st2" d="M402.09,276.1c-0.53-4.15,0.51-6.21,4.21-7.79c2.31-0.99,4.81-1.54,7.25-2.23c1.73-0.49,3.48-0.86,5.49-1.27
		c0.77,4.66-0.68,7.41-4.96,8.89c-2.76,0.95-5.72,1.35-8.6,1.95C404.45,275.87,403.4,275.95,402.09,276.1z"/>
	<path class="st3" d="M165.61,336.98c-4.82,0.08-7.49-2.42-7.83-7.42c-0.19-2.73,0.06-5.49,0.16-8.23c0.03-0.95,0.21-1.89,0.36-3.11
		c3.62-0.14,5.77,1.79,6.51,5.17c0.43,1.95,0.55,3.97,0.66,5.97C165.61,331.8,165.58,334.24,165.61,336.98z"/>
	<path class="st2" d="M392.87,307.73c-0.51,4.76-2.91,7.14-7.58,7.04c-3.89-0.08-7.77-0.8-11.9-1.3c0.95-4.3,2.77-5.98,7.1-6.25
		c2.64-0.16,5.3,0.13,7.95,0.23C389.81,307.5,391.19,307.59,392.87,307.73z"/>
	<path class="st4" d="M355.25,341.01c-1.18,4.06-4.33,5.97-8.47,4.85c-2.95-0.8-5.76-2.17-8.6-3.34c-1.08-0.44-2.09-1.06-3.29-1.71
		c2.61-4.03,4.66-4.94,9.34-3.64C347.88,338.2,351.42,339.66,355.25,341.01z"/>
	<path class="st2" d="M197.83,343.93c4.34-0.83,6.74,0.3,8.52,4.45c1.57,3.67,2.69,7.55,4.03,11.57c-5.27,1.02-8-0.36-9.81-5.37
		C199.36,351.24,198.74,347.67,197.83,343.93z"/>
	<path class="st5" d="M391.73,148.92c0.16-0.28,0.32-0.42,0.53-0.73c0.42,0.5,0.75,1.13,1.08,1.76c-0.1,0.08-0.21,0.17-0.31,0.25
		C392.61,149.83,392.19,149.46,391.73,148.92z"/>
</g>
<g>
	<g>
		<path class="st6" d="M401.62,200.13c0-38.18-30.95-69.12-69.12-69.12s-69.12,30.95-69.12,69.12c0,38.18-30.95,69.13-69.12,69.13
			s-69.12-30.95-69.12-69.13c0,76.35,61.9,138.25,138.25,138.25S401.62,276.48,401.62,200.13L401.62,200.13z"/>
		<path class="st7" d="M125.12,200.35c0,38.18,30.95,69.12,69.12,69.12s69.12-30.95,69.12-69.12c0-38.18,30.95-69.12,69.12-69.12
			s69.12,30.95,69.12,69.12c0-76.35-61.9-138.25-138.25-138.25S125.12,124,125.12,200.35L125.12,200.35z"/>
	</g>
	<text transform="matrix(1 0 0 1 167.7171 219.3633)" class="st8 st9 st10">A</text>
	<text transform="matrix(1 0 0 1 320.2108 219.3633)" class="st11 st9 st10">I</text>
	<line class="st12" x1="225.81" y1="195.87" x2="306.85" y2="195.87"/>
	<g>
		<g>
			<line class="st13" x1="262.18" y1="195.87" x2="290.49" y2="195.87"/>
			<g>
				<polygon class="st11" points="286.91,208.08 308.07,195.87 286.91,183.65 				"/>
			</g>
		</g>
	</g>
</g>
<text transform="matrix(1 0 0 1 24.6339 449.5949)" class="st8 st9 st14">Li Lab @UPenn</text>
</svg>
