<?xml version="1.0" encoding="utf-8"?>
<!-- Generator: Adobe Illustrator 25.3.1, SVG Export Plug-In . SVG Version: 6.00 Build 0)  -->
<svg version="1.1" id="Layer_1" xmlns="http://www.w3.org/2000/svg" xmlns:xlink="http://www.w3.org/1999/xlink" x="0px" y="0px"
	 viewBox="0 0 484.5 151.6" style="enable-background:new 0 0 484.5 151.6;" xml:space="preserve">
<style type="text/css">
	.st0{fill:#990000;}
	.st1{enable-background:new    ;}
	.st2{fill:#011F5B;}
</style>
<path class="st0" d="M102.3,5.5C91,6.9,80.7,13.9,74.9,23.8c-3.3,5.8-4.3,9.3-4.6,16.6c-0.2,5.3-0.1,6.8,0.8,10.3
	c2,7.9,4.9,12.9,11.1,18.8l4,3.8l0.1,33.2l0.1,33.1l-29.6-0.1l-29.7-0.1l-2.9-1.3c-5.2-2.5-8.7-6.2-10.2-11.2c-0.9-3-1-4.6-1-60.6
	V8.9h-3H7v57.9c0,55.9,0,58,1,61.2c2.3,8,8.2,14,16.7,17c2,0.7,6.6,0.8,34.7,0.9l32.4,0.2v-2v-2h15h15v1.7v1.7h3h3v-36
	c0-28.6,0.1-36.2,0.7-37.1c0.3-0.6,1.5-1.9,2.6-2.7c19.5-15.5,16.5-46.3-5.6-59.6c-4-2.4-7.6-3.6-12.7-4.4
	C107.9,4.9,106.9,4.9,102.3,5.5z M116.5,12.3c10.1,3.2,18.2,11.7,21,22.1c0.9,3.6,0.9,11.3,0,15c-1.6,6-3.9,9.9-9.4,15.3
	c-5.6,5.5-6.2,6.7-6.2,12.9v2.9h-15h-15v-3.8c0-4.9-1-7.1-4.6-10.2C77.8,58.3,73.8,46.4,76.7,35c1.6-6.5,4-10.7,8.6-15.2
	c4.5-4.4,8.2-6.6,13.7-8.1C103.5,10.6,111.6,10.8,116.5,12.3z M121.9,88.3v4.2L107,92.4l-14.9-0.1L92,88.2l-0.1-4H107h15L121.9,88.3
	L121.9,88.3z M121.9,99.6v4.2h-15h-15V100c0-2.1,0.1-4,0.3-4.2c0.1-0.2,6.9-0.3,15-0.3h14.7V99.6z M121.9,111.4v4.2h-15h-15v-3.8
	c0-2.1,0.1-4,0.3-4.2c0.1-0.2,6.9-0.3,15-0.3h14.7V111.4z M121.9,123v4.4l-14.9-0.1l-14.9-0.1l-0.1-3.6c-0.1-2,0-3.9,0.1-4.3
	c0.2-0.5,3.2-0.6,15.1-0.6H122L121.9,123L121.9,123z M121.9,134.5v4.2h-15h-15v-3.8c0-2.1,0.1-4,0.3-4.2c0.1-0.2,6.9-0.3,15-0.3
	h14.7V134.5z"/>
<g class="st1">
	<path class="st2" d="M379.4,11.4h53.2c7.9,0,14.6,1,19.9,3c5.3,2,9.6,4.6,12.8,7.8c3.2,3.2,5.5,6.9,7,11.1
		c1.4,4.2,2.1,8.3,2.1,12.6c0,3.6-0.6,7-1.9,10.2c-1.2,3.2-3,6.1-5.3,8.6c-2.3,2.5-5,4.6-8.2,6.2s-6.7,2.8-10.5,3.3l0.4,0.4
		c0.9-0.1,2.9,0.2,6.1,1.1c3.2,0.9,6.6,2.5,10.1,4.9c3.5,2.4,6.7,5.8,9.5,10s4.2,9.8,4.2,16.5c0,6.1-1.1,11.4-3.3,16
		c-2.2,4.6-5.4,8.5-9.4,11.6c-4,3.2-8.9,5.6-14.6,7.2c-5.7,1.6-12,2.4-19,2.4h-53.2V11.4z M432.6,71.7c11.3,0,19.7-2.5,25.3-7.5
		c5.6-5,8.4-11.6,8.4-19.8c0-4.8-0.9-8.9-2.8-12.2c-1.9-3.3-4.3-6-7.4-8c-3.1-2-6.7-3.5-10.7-4.4c-4-0.9-8.3-1.3-12.7-1.3h-45v53.2
		H432.6z M432.6,137.2c11.9,0,21.2-2.5,28-7.5c6.8-5,10.1-12.6,10.1-22.6c0-5.7-1.2-10.4-3.5-14c-2.4-3.7-5.4-6.5-9-8.6
		c-3.7-2.1-7.8-3.6-12.3-4.4c-4.5-0.8-9-1.2-13.3-1.2h-45v58.4H432.6z"/>
</g>
<path class="st2" d="M265.6,137l-28.6-0.1c0,0-20.2,0.8-26.9-0.1c-1.2-0.2-4.5-1.3-4.5-1.3c-5-2.4-7.4-5-8.8-9.8
	c-0.9-2.9-1-4.4-1-58.4V11.8h-3.9H189v55.9c0,54,0,55.9,1,59c2.2,7.7,7.9,13.5,16.1,16.4c1.9,0.7,6.4,0.8,33.4,0.9l31.2,0.2v-1.9
	V137"/>
<g class="st1">
	<path class="st2" d="M320.3,11.4h8.9l52.5,132.8h-8.7l-16.7-42.6h-63.6l-16.9,42.6h-8.7L320.3,11.4z M353.6,94.5l-28.5-75.1h-0.4
		l-29.6,75.1H353.6z"/>
</g>
</svg>
