<?xml version="1.0" encoding="UTF-8" standalone="no"?>
<!-- Created with Inkscape (http://www.inkscape.org/) -->

<svg
   width="210mm"
   height="297mm"
   viewBox="0 0 210 297"
   version="1.1"
   id="svg1"
   xml:space="preserve"
   inkscape:export-filename="xulab.svg"
   inkscape:export-xdpi="96"
   inkscape:export-ydpi="96"
   xmlns:inkscape="http://www.inkscape.org/namespaces/inkscape"
   xmlns:sodipodi="http://sodipodi.sourceforge.net/DTD/sodipodi-0.dtd"
   xmlns="http://www.w3.org/2000/svg"
   xmlns:svg="http://www.w3.org/2000/svg"><sodipodi:namedview
     id="namedview1"
     pagecolor="#ffffff"
     bordercolor="#000000"
     borderopacity="0.25"
     inkscape:showpageshadow="2"
     inkscape:pageopacity="0.0"
     inkscape:pagecheckerboard="0"
     inkscape:deskcolor="#d1d1d1"
     inkscape:document-units="mm" /><defs
     id="defs1"><clipPath
       id="clip0-6"><rect
         x="384"
         y="392"
         width="492"
         height="248"
         id="rect1-7" /></clipPath></defs><g
     inkscape:label="图层 1"
     inkscape:groupmode="layer"
     id="layer1"><g
       clip-path="url(#clip0-6)"
       transform="matrix(0.26458333,0,0,0.26458333,-67.00767,34.100434)"
       id="g5"><text
         fill="#990000"
         font-family="STSong, STSong_MSFontService, sans-serif"
         font-weight="400"
         font-size="117px"
         transform="translate(479.291,536)"
         id="text1">U</text><path
         d="m 777.1,403 h 52.932 c 7.861,0 14.527,1.001 19.8,3.002 5.274,2.002 9.552,4.604 12.736,7.806 3.184,3.203 5.472,6.905 6.965,11.109 1.393,4.203 2.089,8.306 2.089,12.609 0,3.603 -0.597,7.005 -1.89,10.208 -1.194,3.202 -2.985,6.104 -5.274,8.606 -2.288,2.502 -4.974,4.604 -8.158,6.205 -3.184,1.601 -6.667,2.802 -10.448,3.302 l 0.398,0.401 c 0.896,-0.1 2.886,0.2 6.07,1.1 3.184,0.901 6.567,2.502 10.049,4.904 3.482,2.402 6.666,5.804 9.452,10.008 2.786,4.203 4.179,9.807 4.179,16.512 0,6.105 -1.094,11.409 -3.283,16.012 -2.189,4.604 -5.373,8.506 -9.353,11.609 -3.98,3.202 -8.855,5.604 -14.527,7.205 -5.671,1.601 -11.939,2.402 -18.904,2.402 H 777 Z m 52.932,60.345 c 11.243,0 19.601,-2.501 25.173,-7.505 5.572,-5.004 8.358,-11.609 8.358,-19.815 0,-4.804 -0.896,-8.907 -2.786,-12.209 -1.89,-3.303 -4.278,-6.005 -7.363,-8.006 -3.084,-2.002 -6.666,-3.503 -10.646,-4.404 -3.98,-0.9 -8.258,-1.301 -12.636,-1.301 h -44.774 v 53.24 z m 0,65.55 c 11.84,0 21.094,-2.502 27.86,-7.506 6.765,-5.004 10.049,-12.609 10.049,-22.617 0,-5.704 -1.194,-10.408 -3.483,-14.01 -2.388,-3.703 -5.372,-6.505 -8.954,-8.607 -3.682,-2.102 -7.761,-3.603 -12.239,-4.403 -4.477,-0.801 -8.954,-1.201 -13.233,-1.201 h -44.774 v 58.444 h 44.774 z"
         fill="#011f5b"
         fill-rule="evenodd"
         id="path1" /><path
         d="m 662.881,528.767 -28.705,-0.1 c 0,0 -20.274,0.804 -26.998,-0.1 -1.205,-0.201 -4.517,-1.306 -4.517,-1.306 -5.018,-2.411 -7.427,-5.023 -8.832,-9.845 -0.904,-2.913 -1.004,-4.42 -1.004,-58.664 V 403 H 588.911 586 v 56.153 c 0,54.245 0,56.154 1.004,59.268 2.208,7.735 7.929,13.561 16.159,16.474 1.907,0.703 6.423,0.804 33.523,0.904 L 668,536 v -1.908 -5.325"
         fill="#011f5b"
         fill-rule="evenodd"
         id="path2-2" /><path
         d="m 717.921,403 h 8.854 L 779,536 h -8.654 L 753.733,493.336 H 690.466 L 673.654,536 H 665 Z m 33.126,83.225 -28.351,-75.213 h -0.398 l -29.445,75.213 z"
         fill="#011f5b"
         fill-rule="evenodd"
         id="path3-1" /><path
         d="M 384,536 474.458,403 H 483 l -90.458,133 z"
         fill="#990000"
         fill-rule="evenodd"
         id="path4-6" /><path
         d="M 0,133 90.1404,0 H 99 L 8.85955,133 Z"
         fill="#990000"
         fill-rule="evenodd"
         transform="matrix(-1,0,0,1,483,403)"
         id="path5-4" /></g></g></svg>
